<svg width="43" height="43" viewBox="0 0 43 43" fill="none" xmlns="http://www.w3.org/2000/svg">
<path fill-rule="evenodd" clip-rule="evenodd" d="M36.4838 10.8559C36.564 10.2233 36.6053 9.57869 36.6053 8.92449C36.6053 8.39041 36.5778 7.86273 36.524 7.34277H36.5426C40.6137 20.4139 41.8507 27.9818 41.9912 41.0845C41.9949 41.432 41.9978 41.7834 42.0001 42.1388H40.9211H1.06915C0.727811 29.2116 1.54431 20.8205 5.91808 7.53309C5.8765 7.99136 5.85526 8.45546 5.85526 8.92449C5.85526 9.59179 5.89825 10.2491 5.98163 10.8939C2.67077 21.7703 1.9097 29.4845 2.10808 40.3469C4.43624 35.0896 5.87674 30.7448 6.59241 25.9795C7.09104 22.6594 7.23934 19.1249 7.08415 14.924C7.36362 15.5748 7.68716 16.2023 8.05106 16.803C8.10301 20.2314 7.93016 23.2441 7.49979 26.1097C6.75116 31.0945 5.22658 35.6129 2.77994 41.0845H40.2727C37.8261 35.6129 36.3015 31.0945 35.5528 26.1097C35.0762 22.9357 34.9154 19.5814 35.0261 15.6815C35.4523 14.8228 35.7998 13.9184 36.0592 12.9779C35.7766 18.0548 35.8865 22.159 36.4602 25.9795C37.1715 30.7154 38.5986 35.0359 40.9016 40.2497C40.7342 28.8544 39.6742 21.6751 36.4838 10.8559Z" fill="black"/>
<path fill-rule="evenodd" clip-rule="evenodd" d="M5.85547 7.86998C5.85547 7.57881 6.097 7.34277 6.39495 7.34277H35.5266C35.8245 7.34277 36.0661 7.57881 36.0661 7.86998C36.0661 8.16116 35.8245 8.3972 35.5266 8.3972H6.39495C6.097 8.3972 5.85547 8.16116 5.85547 7.86998Z" fill="black"/>
<path d="M13.5557 7.53554C13.9143 5.54239 14.91 3.74683 16.3704 2.45983C17.8309 1.17282 19.6641 0.475441 21.5525 0.48846C23.4409 0.50148 25.2656 1.22408 26.7106 2.53111C28.1555 3.83816 29.1298 5.6473 29.4645 7.64523L28.284 7.87382C27.9988 6.17207 27.169 4.63112 25.9382 3.51784C24.7075 2.40456 23.1532 1.78907 21.5448 1.77798C19.9363 1.76689 18.3749 2.36089 17.1309 3.45711C15.887 4.55333 15.0389 6.08272 14.7334 7.78041L13.5557 7.53554Z" fill="black"/>
<path fill-rule="evenodd" clip-rule="evenodd" d="M5.85547 8.92448C5.85547 8.39041 5.88301 7.86273 5.93675 7.34277H7.02157C6.96399 7.86199 6.93442 8.38973 6.93442 8.92448C6.93442 13.1782 8.8052 16.988 11.7664 19.5934L11.5002 20.5004C11.3288 20.3619 11.2025 20.5166 11.0373 20.3709C7.85888 17.5699 5.85547 13.4799 5.85547 8.92448ZM31.5002 20.5004C31.6686 20.3513 31.5447 20.6967 31.7076 20.5369C34.6027 17.6963 36.6055 13.2232 36.6055 8.92448C36.6055 8.39041 36.5779 7.86273 36.5242 7.34277H35.4394C35.497 7.86199 35.5265 8.38973 35.5265 8.92448C35.5265 13.1109 34.0002 17.0004 31.0002 19.5004L31.5002 20.0004V20.5004Z" fill="black"/>
<path fill-rule="evenodd" clip-rule="evenodd" d="M21.5 13.5C17.07 13.5 13.3116 16.381 11.9985 20.3729C11.9123 20.6352 11.6297 20.7779 11.3673 20.6916C11.105 20.6053 10.9623 20.3227 11.0486 20.0604C12.4926 15.6704 16.6254 12.5 21.5 12.5C26.3746 12.5 30.5075 15.6704 31.9514 20.0604C32.0377 20.3227 31.895 20.6053 31.6327 20.6916C31.3703 20.7779 31.0878 20.6352 31.0015 20.3729C29.6885 16.381 25.93 13.5 21.5 13.5Z" fill="black"/>
<path d="M21.8211 19C21.6955 19 21.5699 19 21.46 19.0157C18.8849 19.1884 16.8437 21.261 16.6867 23.8047C16.6082 25.1394 17.0478 26.4269 17.9114 27.4318C18.9634 28.6565 19.5444 30.1639 19.5444 31.6869C19.5444 32.0324 19.7328 32.3307 20.0312 32.4877V33.948C20.0312 34.529 20.5022 35 21.0989 35H22.6062C23.1872 35 23.6739 34.529 23.6739 33.948V32.472C23.9566 32.315 24.1607 32.001 24.1607 31.6555C24.1607 30.1482 24.7417 28.6408 25.778 27.4161C26.5787 26.4897 27.0027 25.3121 27.0027 24.103C26.9713 21.2924 24.6631 19 21.8211 19ZM22.9517 33.9637C22.9517 34.1678 22.7789 34.3405 22.5748 34.3405H21.0675C20.8633 34.3405 20.6906 34.1678 20.6906 33.9637V32.6133H22.9517V33.9637ZM25.2284 26.9921C24.0822 28.3425 23.4384 29.9912 23.4384 31.6712C23.4384 31.8126 23.3285 31.9225 23.1872 31.9225H20.4551C20.3295 31.9225 20.2196 31.8126 20.2196 31.6869C20.2196 30.0069 19.5758 28.3268 18.4296 26.9764C17.6759 26.0972 17.2991 24.9823 17.3776 23.8361C17.5032 21.6222 19.2932 19.8322 21.5228 19.6752C21.6327 19.6752 21.7426 19.6595 21.8368 19.6595C24.302 19.6595 26.3118 21.6536 26.3118 24.103C26.2961 25.1708 25.9036 26.1914 25.2284 26.9921Z" fill="black"/>
<path fill-rule="evenodd" clip-rule="evenodd" d="M16.6861 23.8051C16.8431 21.2614 18.8843 19.1888 21.4594 19.0161C21.5693 19.0004 21.6949 19.0004 21.8206 19.0004C24.6626 19.0004 26.9707 21.2928 27.0021 24.1034C27.0021 25.3125 26.5782 26.4901 25.7774 27.4165C24.7411 28.6412 24.1601 30.1486 24.1601 31.6559C24.1601 32.0014 23.956 32.3154 23.6734 32.4724V33.9484C23.6734 34.5293 23.1866 35.0004 22.6056 35.0004H21.0983C20.5016 35.0004 20.0306 34.5293 20.0306 33.9484V32.4881C19.7322 32.3311 19.5438 32.0328 19.5438 31.6873C19.5438 30.1643 18.9629 28.6569 17.9108 27.4322C17.0472 26.4273 16.6076 25.1397 16.6861 23.8051ZM17.835 27.4974C16.9546 26.4729 16.5062 25.1599 16.5863 23.7992C16.7463 21.2067 18.8254 19.0944 21.4491 18.9166C21.5651 18.9004 21.6951 18.9004 21.8163 18.9004L21.8206 18.9004C24.7172 18.9004 27.0701 21.2368 27.1021 24.1023L27.1021 24.1034C27.1021 25.3356 26.6701 26.5365 25.8534 27.4814C24.8312 28.6896 24.2601 30.1744 24.2601 31.6559C24.2601 32.0188 24.0585 32.3477 23.7734 32.5292V33.9484C23.7734 34.5865 23.2399 35.1004 22.6056 35.1004H21.0983C20.4474 35.1004 19.9306 34.5855 19.9306 33.9484V32.5465C19.6314 32.3662 19.4438 32.05 19.4438 31.6873C19.4438 30.1899 18.8726 28.7053 17.835 27.4974ZM17.377 23.8365C17.2985 24.9827 17.6753 26.0975 18.429 26.9768C19.5752 28.3272 20.219 30.0073 20.219 31.6873C20.219 31.813 20.3289 31.9229 20.4545 31.9229H23.1866C23.3279 31.9229 23.4378 31.813 23.4378 31.6716C23.4378 29.9916 24.0816 28.3429 25.2278 26.9925C25.903 26.1918 26.2955 25.1711 26.3112 24.1034C26.3112 21.654 24.3014 19.6599 21.8363 19.6599C21.791 19.6599 21.742 19.6635 21.6912 19.6673C21.6364 19.6713 21.5793 19.6756 21.5222 19.6756C19.2926 19.8326 17.5026 21.6226 17.377 23.8365ZM21.5258 19.7756C19.347 19.9307 17.5995 21.6806 17.4768 23.8422L17.4768 23.8433C17.4001 24.9628 17.768 26.052 18.5049 26.9118C19.6654 28.2789 20.319 29.9819 20.319 31.6873C20.319 31.7577 20.3841 31.8229 20.4545 31.8229H23.1866C23.2727 31.8229 23.3378 31.7577 23.3378 31.6716C23.3378 29.9658 23.9914 28.2947 25.1515 26.9279C25.8118 26.1447 26.1957 25.1466 26.2112 24.1027C26.2109 21.7095 24.2466 19.7599 21.8363 19.7599C21.7948 19.7599 21.7492 19.7632 21.6968 19.7671L21.6925 19.7674C21.6409 19.7713 21.5838 19.7754 21.5258 19.7756ZM22.5742 34.2409C22.7231 34.2409 22.8511 34.113 22.8511 33.9641V32.7137H20.79V33.9641C20.79 34.113 20.918 34.2409 21.0669 34.2409H22.5742ZM22.5742 34.3409C22.7784 34.3409 22.9511 34.1682 22.9511 33.9641V32.6137H20.69V33.9641C20.69 34.1682 20.8628 34.3409 21.0669 34.3409H22.5742Z" fill="black"/>
<path d="M16 19.5C16 19.7761 15.7761 20 15.5 20C15.2239 20 15 19.7761 15 19.5C15 19.2239 15.2239 19 15.5 19C15.7761 19 16 19.2239 16 19.5Z" fill="black"/>
<path d="M14 24.5C14 24.7761 13.7761 25 13.5 25C13.2239 25 13 24.7761 13 24.5C13 24.2239 13.2239 24 13.5 24C13.7761 24 14 24.2239 14 24.5Z" fill="black"/>
<path d="M30 24.5C30 24.7761 29.7761 25 29.5 25C29.2239 25 29 24.7761 29 24.5C29 24.2239 29.2239 24 29.5 24C29.7761 24 30 24.2239 30 24.5Z" fill="black"/>
<path d="M28 19.5C28 19.7761 27.7761 20 27.5 20C27.2239 20 27 19.7761 27 19.5C27 19.2239 27.2239 19 27.5 19C27.7761 19 28 19.2239 28 19.5Z" fill="black"/>
<path d="M22 16.5C22 16.7761 21.7761 17 21.5 17C21.2239 17 21 16.7761 21 16.5C21 16.2239 21.2239 16 21.5 16C21.7761 16 22 16.2239 22 16.5Z" fill="black"/>
<line x1="3.5" y1="38.5" x2="39.5" y2="38.5" stroke="black" stroke-linecap="round"/>
</svg>
