<svg width="43" height="43" viewBox="0 0 43 43" fill="none" xmlns="http://www.w3.org/2000/svg">
<path d="M7.2998 11.7002L27.6998 11.7002" stroke="black" stroke-width="0.6" stroke-linecap="square" stroke-dasharray="2 2"/>
<path d="M32.6621 17.2144C32.6621 17.548 32.3917 17.8185 32.0582 17.8185C31.7245 17.8185 31.4541 17.548 31.4541 17.2144C31.4541 16.8809 31.7245 16.6104 32.0582 16.6104C32.3917 16.6104 32.6621 16.8809 32.6621 17.2144Z" fill="black"/>
<path fill-rule="evenodd" clip-rule="evenodd" d="M31.4141 11.1416C31.3042 11.1588 31.229 11.2618 31.2461 11.3717C31.2634 11.4815 31.3664 11.5566 31.4763 11.5395C32.1354 11.4365 32.7532 11.8876 32.8562 12.5468C32.858 12.5585 32.8608 12.5698 32.8645 12.5807C32.8651 12.5882 32.8659 12.5955 32.8673 12.603L33.669 17.0045C33.6596 17.8859 32.9421 18.5976 32.0584 18.5976C31.1738 18.5976 30.4557 17.8845 30.4477 17.0017L31.0494 13.0911C31.0662 12.9812 30.9909 12.8785 30.881 12.8615C30.771 12.8446 30.6682 12.92 30.6512 13.0299L30.0449 16.9715V16.9867C30.0449 18.0988 30.9464 19.0002 32.0584 19.0002C33.1704 19.0002 34.0718 18.0988 34.0718 16.9867V16.9686L33.2635 12.5308C33.2616 12.5209 33.2591 12.5112 33.256 12.502C33.2556 12.4962 33.255 12.4904 33.254 12.4846C33.1168 11.6058 32.2931 11.0044 31.4141 11.1416Z" fill="black"/>
<path fill-rule="evenodd" clip-rule="evenodd" d="M29.4036 11.1721V13.0017L30.159 13.422C30.2562 13.4761 30.2912 13.5987 30.2371 13.6959C30.183 13.7931 30.0604 13.828 29.9632 13.7739L29.2078 13.3536C29.0801 13.2825 29.001 13.1479 29.001 13.0017V11.0265C28.9907 10.9242 29.0598 10.829 29.1628 10.8089L33.2977 10H33.3172C34.3736 10 35.206 10.9153 35.206 12.0135C35.206 13.1117 34.3736 14.0269 33.3172 14.0269C33.206 14.0269 33.1159 13.9368 33.1159 13.8256C33.1159 13.7144 33.206 13.6243 33.3172 13.6243C34.1247 13.6243 34.8034 12.9168 34.8034 12.0135C34.8034 11.1172 34.1353 10.4138 33.336 10.4029L29.4036 11.1721Z" fill="black"/>
<path fill-rule="evenodd" clip-rule="evenodd" d="M30.2441 12.2833C30.2441 12.1722 30.3343 12.082 30.4455 12.082H31.8572C31.9685 12.082 32.0586 12.1722 32.0586 12.2833C32.0586 12.3945 31.9685 12.4846 31.8572 12.4846H30.4455C30.3343 12.4846 30.2441 12.3945 30.2441 12.2833Z" fill="black"/>
<path d="M2.50002 5C2.50003 3.067 4.06703 1.5 6.00003 1.5L37 1.50002C38.933 1.50002 40.5 3.06702 40.5 5.00002V33.7641C40.5 35.2808 39.5231 36.6249 38.0804 37.0931L22.5805 42.1237C21.8782 42.3516 21.1218 42.3516 20.4195 42.1237L4.91955 37.0931C3.47691 36.6249 2.5 35.2808 2.5 33.764L2.50002 5Z" stroke="black"/>
<path d="M5.00002 8.30007H5.15002L5.15002 8C5.15002 7.89816 5.15397 7.79727 5.16172 7.69747L5.01217 7.68586C5.02862 7.47412 5.06156 7.26702 5.1097 7.06582L5.25558 7.10072C5.30291 6.90288 5.36553 6.71097 5.4421 6.52631L5.30354 6.46885C5.38424 6.27426 5.47984 6.08743 5.58895 5.90976L5.71677 5.98826C5.82257 5.81597 5.94156 5.65263 6.07234 5.49965L5.95832 5.40218C6.09448 5.24291 6.24293 5.09446 6.4022 4.9583L6.49967 5.07232C6.65265 4.94154 6.81599 4.82255 6.98828 4.71675L6.90978 4.58893C7.08745 4.47983 7.27428 4.38422 7.46887 4.30352L7.52633 4.44208C7.71099 4.36551 7.9029 4.3029 8.10074 4.25556L8.06584 4.10968C8.26704 4.06154 8.47414 4.02861 8.68588 4.01216L8.69749 4.16171C8.79729 4.15395 8.89818 4.15 9.00002 4.15L9.29764 4.15V4L9.89288 4V4.15L10.4881 4.15V4L11.0834 4L11.0834 4.15L11.6786 4.15V4L12.2738 4L12.2738 4.15L12.8691 4.15L12.8691 4L13.4643 4.00001V4.15001L14.0595 4.15001V4.00001L14.6548 4.00001V4.15001L15.25 4.15001V4.00001L15.8453 4.00001V4.15001L16.4405 4.15001V4.00001L17.0357 4.00001V4.15001L17.631 4.15001V4.00001L18.2262 4.00001V4.15001L18.8214 4.15001V4.00001L19.4167 4.00001V4.15001L20.0119 4.15001V4.00001L20.6072 4.00001L20.6072 4.15001L21.2024 4.15001V4.00001L21.7976 4.00001V4.15001L22.3929 4.15001V4.00001L22.9881 4.00001V4.15001L23.5833 4.15001V4.00001L24.1786 4.00001L24.1786 4.15001L24.7738 4.15001L24.7738 4.00001L25.3691 4.00001V4.15001L25.9643 4.15001V4.00001L26.5595 4.00001V4.15001L27.1548 4.15001V4.00001L27.75 4.00001V4.15001L28.3452 4.15001V4.00001L28.9405 4.00001V4.15001L29.5357 4.15001V4.00001L30.131 4.00001V4.15001L30.7262 4.15002V4.00002L31.3214 4.00002V4.15002L31.9167 4.15002V4.00002L32.5119 4.00002V4.15002L33.1071 4.15002V4.00002L33.7024 4.00002V4.15002L34 4.15002C34.1018 4.15002 34.2027 4.15397 34.3025 4.16172L34.3142 4.01217C34.5259 4.02862 34.733 4.06156 34.9342 4.10969L34.8993 4.25558C35.0971 4.30291 35.289 4.36552 35.4737 4.4421L35.5312 4.30354C35.7257 4.38423 35.9126 4.47984 36.0902 4.58894L36.0117 4.71676C36.184 4.82256 36.3474 4.94155 36.5004 5.07234L36.5978 4.95832C36.7571 5.09448 36.9055 5.24293 37.0417 5.4022L36.9277 5.49967C37.0585 5.65265 37.1775 5.81599 37.2833 5.98827L37.4111 5.90978C37.5202 6.08744 37.6158 6.27428 37.6965 6.46887L37.5579 6.52632C37.6345 6.71099 37.6971 6.90289 37.7444 7.10074L37.8903 7.06583C37.9385 7.26703 37.9714 7.47414 37.9878 7.68587L37.8383 7.69749C37.8461 7.79728 37.85 7.89817 37.85 8.00002V8.30009H38V8.90023H37.85V9.50036H38V10.1005H37.85V10.7006H38V11.3008H37.85V11.9009H38V12.501H37.85V13.1012H38V13.7013H37.85V14.3014H38V14.9016H37.85V15.5017H38V16.1019H37.85V16.702H38V17.3021H37.85V17.9023H38V18.5024H37.85V19.1025H38V19.7027H37.85V20.3028H38V20.903H37.85V21.5031H38V22.1032H37.85V22.7034H38V23.3035H37.85V23.9036H38V24.5038H37.85V25.1039H38V25.704H37.85V26.3042H38V26.9043H37.85V27.5045H38V28.1046H37.85V28.7047H38V29.3049H37.85V29.905H38V30.5051H37.85V30.8052C37.85 30.9071 37.846 31.0083 37.8381 31.1085L37.9877 31.1203C37.971 31.332 37.9377 31.54 37.8889 31.7426L37.7431 31.7074C37.6954 31.9054 37.6323 32.0981 37.5549 32.2839L37.6934 32.3415C37.6124 32.5363 37.5162 32.7237 37.4062 32.9023L37.2785 32.8237C37.1723 32.9961 37.0527 33.1599 36.9208 33.3135L37.0346 33.4112C36.898 33.5704 36.7487 33.719 36.5879 33.8555L36.4908 33.7412C36.3374 33.8714 36.1731 33.9902 35.999 34.0959L36.0769 34.2241C35.8988 34.3323 35.7108 34.4273 35.5142 34.5076L35.4575 34.3688C35.3644 34.4068 35.2692 34.4414 35.1722 34.4724L34.8881 34.5632L34.9337 34.7061L34.3656 34.8877L34.3199 34.7448L33.7517 34.9265L33.7974 35.0693L33.2292 35.2509L33.1835 35.1081L32.6154 35.2897L32.661 35.4326L32.0928 35.6142L32.0472 35.4713L31.479 35.6529L31.5247 35.7958L30.9565 35.9774L30.9108 35.8345L30.3426 36.0161L30.3883 36.159L29.8201 36.3406L29.7744 36.1977L29.2063 36.3793L29.2519 36.5222L28.6837 36.7038L28.6381 36.5609L28.0699 36.7426L28.1156 36.8854L27.5474 37.067L27.5017 36.9242L26.9335 37.1058L26.9792 37.2487L26.411 37.4303L26.3654 37.2874L25.7972 37.469L25.8428 37.6119L25.2747 37.7935L25.229 37.6506L24.6608 37.8322L24.7065 37.9751L24.1383 38.1567L24.0926 38.0138L23.5244 38.1954L23.5701 38.3383L23.0019 38.5199L22.9563 38.3771L22.6722 38.4679C22.5774 38.4982 22.4817 38.5247 22.3853 38.5475L22.4198 38.6934C22.2184 38.741 22.0142 38.7728 21.8091 38.7887L21.7975 38.6391C21.5995 38.6545 21.4005 38.6545 21.2025 38.6391L21.1909 38.7887C20.9858 38.7728 20.7816 38.741 20.5802 38.6934L20.6147 38.5475C20.5183 38.5247 20.4226 38.4982 20.3278 38.4679L20.0437 38.3771L19.9981 38.5199L19.4299 38.3383L19.4756 38.1954L18.9074 38.0138L18.8617 38.1567L18.2935 37.9751L18.3392 37.8322L17.771 37.6506L17.7253 37.7935L17.1572 37.6119L17.2028 37.469L16.6346 37.2874L16.589 37.4303L16.0208 37.2487L16.0665 37.1058L15.4983 36.9242L15.4526 37.067L14.8844 36.8854L14.9301 36.7426L14.3619 36.5609L14.3163 36.7038L13.7481 36.5222L13.7937 36.3793L13.2256 36.1977L13.1799 36.3406L12.6117 36.159L12.6574 36.0161L12.0892 35.8345L12.0435 35.9774L11.4753 35.7958L11.521 35.6529L10.9528 35.4713L10.9072 35.6142L10.339 35.4326L10.3846 35.2897L9.81647 35.1081L9.7708 35.2509L9.20262 35.0693L9.24829 34.9265L8.6801 34.7448L8.63443 34.8877L8.06625 34.7061L8.11192 34.5632L7.82783 34.4724C7.73078 34.4414 7.63564 34.4068 7.54253 34.3688L7.48581 34.5076C7.28918 34.4273 7.10124 34.3323 6.92312 34.2241L7.00098 34.0959C6.82695 33.9902 6.66264 33.8714 6.50918 33.7412L6.4121 33.8555C6.25132 33.719 6.102 33.5704 5.96537 33.4112L6.07918 33.3135C5.94731 33.1599 5.82769 32.9961 5.72151 32.8237L5.59379 32.9023C5.48378 32.7237 5.38764 32.5363 5.30658 32.3415L5.44506 32.2839C5.3677 32.0981 5.30461 31.9054 5.25692 31.7074L5.11109 31.7426C5.06228 31.54 5.02899 31.332 5.01235 31.1203L5.16189 31.1085C5.15401 31.0083 5.15 30.9071 5.15 30.8052L5.15 30.5051H5L5 29.905H5.15L5.15 29.3049H5L5 28.7047H5.15L5.15 28.1046H5L5 27.5045H5.15L5.15001 26.9043H5.00001L5.00001 26.3042H5.15001L5.15001 25.704H5.00001L5.00001 25.1039H5.15001L5.15001 24.5038H5.00001L5.00001 23.9036H5.15001L5.15001 23.3035H5.00001L5.00001 22.7034H5.15001L5.15001 22.1032H5.00001L5.00001 21.5031H5.15001L5.15001 20.9029H5.00001L5.00001 20.3028H5.15001L5.15001 19.7027H5.00001L5.00001 19.1025H5.15001L5.15001 18.5024H5.00001L5.00001 17.9023H5.15001L5.15001 17.3021H5.00001L5.00001 16.702H5.15001L5.15001 16.1018H5.00001L5.00001 15.5017H5.15001L5.15001 14.9016H5.00001L5.00002 14.3014H5.15002L5.15002 13.7013H5.00002L5.00002 13.1012H5.15002L5.15002 12.501H5.00002L5.00002 11.9009H5.15002L5.15002 11.3008L5.00002 11.3008L5.00002 10.7006H5.15002L5.15002 10.1005H5.00002L5.00002 9.50034H5.15002L5.15002 8.90021H5.00002L5.00002 8.30007Z" stroke="black" stroke-width="0.3" stroke-dasharray="0.6 0.6"/>
</svg>
