<svg width="43" height="43" viewBox="0 0 43 43" fill="none" xmlns="http://www.w3.org/2000/svg">
<path d="M5.63363 17.6246C5.66581 16.8202 6.32733 16.1846 7.13243 16.1846H35.9208C36.7259 16.1846 37.3874 16.8202 37.4196 17.6246L38.3122 39.9404C38.3463 40.7917 37.6654 41.5004 36.8134 41.5004H6.2398C5.38786 41.5004 4.70695 40.7917 4.741 39.9404L5.63363 17.6246Z" stroke="black"/>
<path d="M37.8418 18.8418L40.3298 19.3816L41.1989 19.654C41.6848 19.8062 41.9787 20.2994 41.8814 20.7993L38.3681 38.8418" stroke="black" stroke-width="0.8"/>
<path d="M5.21094 18.8418L2.7229 19.3816L1.85387 19.654C1.36791 19.8062 1.07402 20.2994 1.17136 20.7993L4.68462 38.8418" stroke="black" stroke-width="0.8"/>
<rect x="11.8764" y="19.1918" width="3.51053" height="2.45789" rx="0.65" stroke="black" stroke-width="0.7"/>
<rect x="27.6654" y="19.1918" width="3.51053" height="2.45789" rx="0.65" stroke="black" stroke-width="0.7"/>
<path d="M13.6699 24.1053C13.6699 24.1053 13.6236 23.5127 13.6318 22M29.3833 24.1053C29.3833 24.1053 29.4295 23.5125 29.4213 22M13.6699 18.8421C13.9419 12.3244 15.3539 2 21.5266 2C27.7187 2 29.1555 12.33 29.4213 18.8421" stroke="black" stroke-linecap="round"/>
<line x1="34.508" y1="15.9887" x2="35.3501" y2="41.9887" stroke="black" stroke-width="0.7"/>
<line y1="-0.35" x2="26.0136" y2="-0.35" transform="matrix(-0.0323716 0.999476 0.999476 0.0323716 9 16)" stroke="black" stroke-width="0.7"/>
</svg>
