<svg width="43" height="43" viewBox="0 0 43 43" fill="none" xmlns="http://www.w3.org/2000/svg">
<path d="M2.35421 18.841C2.43981 16.4191 4.42798 14.5 6.8514 14.5H36.1486C38.572 14.5 40.5602 16.4191 40.6458 18.841L41.3173 37.8411C41.4073 40.3871 39.3678 42.5 36.8202 42.5H6.17985C3.63225 42.5 1.59267 40.3871 1.68265 37.841L2.35421 18.841Z" stroke="black"/>
<path d="M21.5 1C13.8355 1 10.225 7.5 8.6875 12" stroke="black"/>
<path d="M21.5 1C29.1645 1 32.775 7.5 34.3125 12" stroke="black"/>
<path d="M36.875 14.5C36.875 13.1193 35.7277 12 34.3125 12C32.8973 12 31.75 13.1193 31.75 14.5" stroke="black"/>
<path d="M11.25 14.5C11.25 13.1193 10.1027 12 8.6875 12C7.27227 12 6.125 13.1193 6.125 14.5" stroke="black"/>
<path d="M2.02539 31.5C2.02539 31.5 6.12539 35.5 21.5004 35.5C36.8754 35.5 40.9754 31.5 40.9754 31.5" stroke="black" stroke-width="0.8"/>
<rect x="16.775" y="25.4" width="9.45" height="4.2" rx="1.6" stroke="black" stroke-width="0.8"/>
</svg>
