<svg width="33" height="33" viewBox="0 0 33 33" xmlns="http://www.w3.org/2000/svg">
<path d="M13.4063 17.0157C13.4063 17.3 13.1749 17.5314 12.8907 17.5314C12.6065 17.5314 12.3751 17.3 12.3751 17.0157C12.3751 16.7315 12.6065 16.5001 12.8907 16.5001C13.1749 16.5001 13.4063 16.7315 13.4063 17.0157ZM20.1094 16.5001C19.8252 16.5001 19.5938 16.7315 19.5938 17.0157C19.5938 17.3 19.8252 17.5314 20.1094 17.5314C20.3937 17.5314 20.6251 17.3 20.6251 17.0157C20.6251 16.7315 20.3937 16.5001 20.1094 16.5001ZM23.9405 28.3595H9.0596C7.81179 28.3595 6.84757 27.2612 7.01257 26.0237L8.76569 12.8907L9.63368 10.8681C8.43228 9.22781 8.53115 7.14798 9.60429 5.74979C11.0364 3.88729 13.665 3.58017 15.4688 5.01638C17.2711 3.58191 19.8987 3.88446 21.333 5.74954C21.591 6.08269 21.7877 6.45381 21.926 6.85214C23.3569 7.33592 24.0908 8.87274 23.536 10.3146C23.4796 10.4665 23.4053 10.6137 23.3206 10.7559L24.2344 12.8907L25.9876 26.0237C26.1526 27.2612 25.1883 28.3595 23.9405 28.3595ZM21.4138 7.77033C21.4136 7.77033 21.4133 7.77033 21.4131 7.77027C20.8814 7.66128 20.3388 7.82493 19.9619 8.20887C19.8652 8.30755 19.733 8.36324 19.5948 8.36343C19.5946 8.36343 19.5941 8.36343 19.5938 8.36343C19.4561 8.36343 19.3239 8.30832 19.2272 8.21036C18.9029 7.88229 18.4527 7.70807 17.9965 7.73953C16.9168 7.80707 16.1705 8.93036 16.643 10.0198C16.8439 10.4975 17.0996 10.6586 18.7939 12.3751H20.3942C22.0901 10.6565 22.3796 10.4696 22.5697 9.95388C22.5708 9.95136 22.5717 9.94885 22.5728 9.94608C22.9616 8.93939 22.3331 7.95925 21.4138 7.77033ZM10.7796 10.6329L12.5027 12.3751H17.3447C16.2044 11.2197 15.9494 11.0324 15.6946 10.4246C14.9366 8.67667 16.1532 6.82146 17.9318 6.71027C18.5267 6.67199 19.1104 6.8397 19.5925 7.17556C19.9381 6.93328 20.3712 6.77634 20.7471 6.72716C19.7418 4.93981 17.2961 4.59531 15.8351 6.07077C15.7384 6.16848 15.6065 6.22359 15.4688 6.22359C15.331 6.22359 15.1991 6.16848 15.1024 6.07077C13.8094 4.76392 11.6196 4.82044 10.4223 6.37795C9.48789 7.59534 9.59772 9.42394 10.7796 10.6329ZM21.6563 17.0157C21.6563 16.1628 20.9624 15.4689 20.1094 15.4689C19.2565 15.4689 18.5626 16.1628 18.5626 17.0157C18.5626 17.6871 18.9949 18.254 19.5938 18.4676V20.6251C19.5938 22.3311 18.2061 23.7189 16.5001 23.7189C14.7941 23.7189 13.4063 22.3311 13.4063 20.6251V18.4676C14.0052 18.2541 14.4376 17.6871 14.4376 17.0157C14.4376 16.1628 13.7437 15.4689 12.8907 15.4689C12.0377 15.4689 11.3438 16.1628 11.3438 17.0157C11.3438 17.6871 11.7762 18.254 12.3751 18.4676V20.6251C12.3751 22.8996 14.2256 24.7501 16.5001 24.7501C18.7746 24.7501 20.6251 22.8996 20.6251 20.6251V18.4676C21.224 18.2541 21.6563 17.6871 21.6563 17.0157Z" fill="currentColor"/>
</svg>
