<svg width="16" height="19" viewBox="0 0 16 19" xmlns="http://www.w3.org/2000/svg">
<path d="M0.491427 16.4239L1.57936 4.17301C1.60267 3.90102 1.83192 3.69509 2.10002 3.69509H4.33805C4.36914 1.65133 6.03989 0 8.09143 0C10.143 0 11.8137 1.65133 11.8448 3.69509H14.0828C14.3548 3.69509 14.5802 3.90102 14.6035 4.17301L15.6914 16.4239C15.6914 16.4395 15.6953 16.455 15.6953 16.4706C15.6953 17.8654 14.417 19 12.8434 19H3.33949C1.76587 19 0.487541 17.8654 0.487541 16.4706C0.487541 16.455 0.487541 16.4395 0.491427 16.4239ZM8.09143 1.04908C6.61883 1.04908 5.41822 2.23027 5.38713 3.69509H10.7957C10.7646 2.23027 9.56402 1.04908 8.09143 1.04908ZM3.33949 17.9509H12.8434C13.8303 17.9509 14.6307 17.2982 14.6462 16.4939L13.6049 4.74806H11.8487V6.3411C11.8487 6.63251 11.6156 6.86564 11.3241 6.86564C11.0327 6.86564 10.7996 6.63251 10.7996 6.3411V4.74806H5.38713V6.3411C5.38713 6.63251 5.154 6.86564 4.86259 6.86564C4.57118 6.86564 4.33805 6.63251 4.33805 6.3411V4.74806H2.58182L1.53662 16.4939C1.55216 17.2982 2.35646 17.9509 3.33949 17.9509Z" fill="currentColor"/>
</svg>
