<svg width="17" height="18" viewBox="0 0 17 18" xmlns="http://www.w3.org/2000/svg">
<path d="M4.87325 9.48087L7.04227 15.9879C7.06736 16.0442 7.10338 16.0949 7.14823 16.1371C7.19307 16.1792 7.24586 16.2121 7.30352 16.2337C7.36118 16.2554 7.42256 16.2653 7.4841 16.263C7.54564 16.2607 7.6061 16.2462 7.66199 16.2203L8.43664 15.833C8.76282 15.6633 9.03632 15.4075 9.22749 15.0935C9.41867 14.7794 9.52022 14.419 9.52115 14.0513V11.0302H14.4789C14.713 11.0259 14.943 10.9687 15.1518 10.8627C15.3605 10.7568 15.5425 10.605 15.6842 10.4186C15.8258 10.2322 15.9234 10.0162 15.9696 9.78666C16.0157 9.55717 16.0093 9.32019 15.9507 9.09355L14.4014 2.89635C14.3168 2.56842 14.1271 2.27725 13.8613 2.0674C13.5955 1.85754 13.2682 1.74057 12.9296 1.73438H2.5493C2.1384 1.73438 1.74433 1.8976 1.45378 2.18815C1.16323 2.4787 1 2.87277 1 3.28367V7.93157C1 8.34247 1.16323 8.73654 1.45378 9.02709C1.74433 9.31764 2.1384 9.48087 2.5493 9.48087H4.87325ZM4.87325 9.48087V1.73438" stroke="currentColor" stroke-width="1.5" stroke-linecap="round" stroke-linejoin="round" fill="none"/>
</svg>
