<svg width="19" height="19" viewBox="0 0 19 19" xmlns="http://www.w3.org/2000/svg">
<path fill-rule="evenodd" clip-rule="evenodd" d="M2.375 5.54167C2.375 5.10445 2.72945 4.75 3.16667 4.75H15.8333C16.2706 4.75 16.625 5.10445 16.625 5.54167C16.625 5.97889 16.2706 6.33333 15.8333 6.33333H3.16667C2.72945 6.33333 2.375 5.97889 2.375 5.54167ZM4.75 9.5C4.75 9.06276 5.10444 8.70833 5.54167 8.70833H13.4583C13.8956 8.70833 14.25 9.06276 14.25 9.5C14.25 9.93724 13.8956 10.2917 13.4583 10.2917H5.54167C5.10444 10.2917 4.75 9.93724 4.75 9.5ZM7.125 13.4583C7.125 13.0211 7.47944 12.6667 7.91667 12.6667H11.0833C11.5206 12.6667 11.875 13.0211 11.875 13.4583C11.875 13.8956 11.5206 14.25 11.0833 14.25H7.91667C7.47944 14.25 7.125 13.8956 7.125 13.4583Z" fill="currentColor"/>
</svg>
