<svg width="20" height="17" viewBox="0 0 20 17" xmlns="http://www.w3.org/2000/svg">
<path d="M10.0918 16.9039C9.82129 16.9039 9.56051 16.8059 9.35728 16.6279C8.58972 15.9567 7.84971 15.326 7.19682 14.7697L7.19348 14.7668C5.27931 13.1356 3.62635 11.7269 2.47625 10.3392C1.19062 8.78782 0.591797 7.31693 0.591797 5.71006C0.591797 4.14886 1.12713 2.70855 2.09907 1.65427C3.08261 0.587517 4.43217 0 5.89959 0C6.99634 0 8.00076 0.346741 8.88486 1.03051C9.33104 1.37566 9.73547 1.79807 10.0918 2.29078C10.4482 1.79807 10.8525 1.37566 11.2988 1.03051C12.1829 0.346741 13.1874 0 14.2841 0C15.7514 0 17.1011 0.587517 18.0846 1.65427C19.0566 2.70855 19.5918 4.14886 19.5918 5.71006C19.5918 7.31693 18.9931 8.78782 17.7074 10.339C16.5574 11.7269 14.9045 13.1354 12.9907 14.7665C12.3366 15.3237 11.5954 15.9554 10.8261 16.6282C10.6231 16.8059 10.3621 16.9039 10.0918 16.9039ZM5.89959 1.11299C4.74673 1.11299 3.68767 1.57309 2.91722 2.40863C2.13531 3.25678 1.70464 4.42921 1.70464 5.71006C1.70464 7.06151 2.20692 8.27017 3.3331 9.62901C4.42159 10.9425 6.04063 12.3222 7.91523 13.9198L7.91871 13.9227C8.57407 14.4812 9.31698 15.1144 10.0902 15.7905C10.868 15.1131 11.6121 14.4789 12.2688 13.9195C14.1432 12.3219 15.7621 10.9425 16.8506 9.62901C17.9766 8.27017 18.4789 7.06151 18.4789 5.71006C18.4789 4.42921 18.0482 3.25678 17.2663 2.40863C16.496 1.57309 15.4368 1.11299 14.2841 1.11299C13.4396 1.11299 12.6642 1.38145 11.9796 1.91084C11.3694 2.38283 10.9444 2.97948 10.6952 3.39696C10.5671 3.61164 10.3415 3.73978 10.0918 3.73978C9.84202 3.73978 9.61646 3.61164 9.48832 3.39696C9.23928 2.97948 8.81426 2.38283 8.20399 1.91084C7.51935 1.38145 6.74397 1.11299 5.89959 1.11299Z" fill="currentColor"/>
</svg>
