<svg width="16" height="16" viewBox="0 0 16 16" xmlns="http://www.w3.org/2000/svg">
<path d="M11.6521 0.00323276L9.63731 0C7.37376 0 5.91095 1.50081 5.91095 3.8237V5.58669H3.88517C3.71011 5.58669 3.56836 5.7286 3.56836 5.90366V8.45802C3.56836 8.63307 3.71028 8.77483 3.88517 8.77483H5.91095V15.2203C5.91095 15.3954 6.05271 15.5371 6.22776 15.5371H8.87083C9.04588 15.5371 9.18764 15.3952 9.18764 15.2203V8.77483H11.5563C11.7313 8.77483 11.8731 8.63307 11.8731 8.45802L11.874 5.90366C11.874 5.81961 11.8406 5.73911 11.7813 5.67963C11.7219 5.62015 11.6411 5.58669 11.5571 5.58669H9.18764V4.09218C9.18764 3.37387 9.35881 3.00921 10.2945 3.00921L11.6518 3.00873C11.8267 3.00873 11.9684 2.86681 11.9684 2.69192V0.320043C11.9684 0.145312 11.8268 0.00355603 11.6521 0.00323276Z" fill="currentColor"/>
</svg>
