<svg width="16" height="15" viewBox="0 0 16 15" xmlns="http://www.w3.org/2000/svg">
<path d="M15.7115 4.54815C15.6657 2.96005 14.9372 1.65474 13.9065 0.856728C12.5808 -0.170827 10.7529 -0.359356 9.23363 0.761744C8.7322 1.13305 8.26292 1.64682 7.85721 2.32179C7.45149 1.64682 6.98293 1.13305 6.48079 0.762463C4.96151 -0.359356 3.13437 -0.170827 1.80795 0.857448C0.77653 1.65546 0.048677 2.96077 0.00296295 4.54887C-0.0220369 5.39222 0.106534 6.33342 0.565817 7.28542C1.28724 8.77998 4.67651 12.103 7.83078 14.9727L7.85578 15L7.85721 14.9986L7.85864 15L7.88435 14.9727C11.0379 12.1037 14.4265 8.7807 15.1486 7.28542C15.6086 6.33342 15.7357 5.3915 15.7115 4.54815Z" fill="currentColor"/>
</svg>
