<svg width="26" height="26" viewBox="0 0 26 26" xmlns="http://www.w3.org/2000/svg">
<path d="M23.5625 23.5625H2.4375C1.09362 23.5625 0 22.4689 0 21.125V8.125C0 6.78113 1.09362 5.6875 2.4375 5.6875H5.99706L7.39538 2.88763C7.53188 2.61138 7.81381 2.4375 8.12175 2.4375H17.8799C18.1878 2.4375 18.4689 2.61138 18.6071 2.88763L20.0029 5.6875H23.5625C24.9064 5.6875 26 6.78113 26 8.125V21.125C26 22.4689 24.9064 23.5625 23.5625 23.5625ZM24.375 8.125C24.375 7.67731 24.0102 7.3125 23.5625 7.3125H19.5C19.4594 7.3125 19.4244 7.29544 19.3854 7.28975C19.3277 7.28081 19.2701 7.27594 19.2148 7.25481C19.1653 7.23612 19.1238 7.20606 19.0791 7.17763C19.0352 7.15081 18.9906 7.12806 18.9524 7.09231C18.9093 7.0525 18.8784 7.00375 18.8451 6.955C18.8224 6.9225 18.7907 6.89894 18.7728 6.86238L17.3769 4.0625H8.62469L7.22719 6.86238C7.189 6.93956 7.13781 7.00619 7.08094 7.06469C7.06956 7.07688 7.05575 7.08419 7.04356 7.09556C6.98506 7.14838 6.92088 7.19144 6.851 7.22475C6.82744 7.23694 6.80469 7.24669 6.7795 7.25644C6.69012 7.28894 6.5975 7.31169 6.50163 7.3125H6.5H2.4375C1.98981 7.3125 1.625 7.67731 1.625 8.125V21.125C1.625 21.5727 1.98981 21.9375 2.4375 21.9375H23.5625C24.0102 21.9375 24.375 21.5727 24.375 21.125V8.125ZM13 19.5C9.86375 19.5 7.3125 16.9487 7.3125 13.8125C7.3125 10.6763 9.86375 8.125 13 8.125C16.1362 8.125 18.6875 10.6763 18.6875 13.8125C18.6875 16.9487 16.1362 19.5 13 19.5ZM13 9.75C10.7599 9.75 8.9375 11.5724 8.9375 13.8125C8.9375 16.0526 10.7599 17.875 13 17.875C15.2401 17.875 17.0625 16.0526 17.0625 13.8125C17.0625 11.5724 15.2401 9.75 13 9.75Z" fill="currentColor"/>
</svg>
