<svg width="17" height="18" viewBox="0 0 17 18" xmlns="http://www.w3.org/2000/svg">
<path d="M4.87325 8.51913L7.04227 2.01207C7.06736 1.95584 7.10338 1.90515 7.14823 1.86295C7.19307 1.82075 7.24586 1.78789 7.30352 1.76627C7.36118 1.74464 7.42256 1.73469 7.4841 1.737C7.54564 1.7393 7.6061 1.75381 7.66199 1.77968L8.43664 2.167C8.76282 2.3367 9.03632 2.59245 9.22749 2.90653C9.41867 3.2206 9.52022 3.58102 9.52115 3.9487V6.96983H14.4789C14.713 6.97409 14.943 7.03134 15.1518 7.13726C15.3605 7.24319 15.5425 7.39504 15.6842 7.58142C15.8258 7.76779 15.9234 7.98384 15.9696 8.21334C16.0157 8.44283 16.0093 8.67981 15.9507 8.90645L14.4014 15.1037C14.3168 15.4316 14.1271 15.7227 13.8613 15.9326C13.5955 16.1425 13.2682 16.2594 12.9296 16.2656H2.5493C2.1384 16.2656 1.74433 16.1024 1.45378 15.8118C1.16323 15.5213 1 15.1272 1 14.7163V10.0684C1 9.65753 1.16323 9.26346 1.45378 8.97291C1.74433 8.68236 2.1384 8.51913 2.5493 8.51913H4.87325ZM4.87325 8.51913V16.2656" stroke="currentColor" stroke-width="1.5" stroke-linecap="round" stroke-linejoin="round" fill="none"/>
</svg>
