<svg width="17" height="17" viewBox="0 0 17 17" xmlns="http://www.w3.org/2000/svg">
<path d="M8.49953 0C5.10468 0 2.34277 2.7619 2.34277 6.15672C2.34277 10.3698 7.85247 16.5548 8.08705 16.8161C8.30738 17.0615 8.69207 17.0611 8.91201 16.8161C9.14659 16.5548 14.6563 10.3698 14.6563 6.15672C14.6562 2.7619 11.8943 0 8.49953 0ZM8.49953 9.25434C6.79149 9.25434 5.40194 7.86476 5.40194 6.15672C5.40194 4.44869 6.79153 3.05914 8.49953 3.05914C10.2075 3.05914 11.5971 4.44872 11.5971 6.15676C11.5971 7.86479 10.2075 9.25434 8.49953 9.25434Z" fill="currentColor"/>
</svg>
