<svg width="22" height="16" viewBox="0 0 22 16" xmlns="http://www.w3.org/2000/svg">
<path id="Vector" d="M8.27537 13.1875C8.04494 13.393 7.8666 13.5305 7.68435 13.631C6.79222 14.123 5.69308 14.123 4.80095 13.631C4.4722 13.4497 4.15618 13.1478 3.52415 12.5442C2.89212 11.9405 2.5761 11.6386 2.3863 11.3246C1.87123 10.4724 1.87123 9.42253 2.3863 8.57039C2.5761 8.25641 2.89212 7.95456 3.52415 7.35084L6.24265 4.75418C6.87468 4.15048 7.19069 3.84862 7.51944 3.66733C8.41157 3.17534 9.51074 3.17534 10.4029 3.66732C10.7316 3.84862 11.0476 4.15048 11.6796 4.75418C12.3117 5.35789 12.6277 5.65974 12.8175 5.97375C13.3326 6.82589 13.3326 7.87579 12.8175 8.72793C12.7123 8.90199 12.5683 9.07238 12.3531 9.29244M9.64693 6.70756C9.43173 6.92762 9.28775 7.09801 9.18251 7.27207C8.66748 8.12421 8.66748 9.17411 9.18251 10.0262C9.37233 10.3403 9.68835 10.6422 10.3204 11.2458C10.9524 11.8495 11.2685 12.1514 11.5972 12.3327C12.4893 12.8247 13.5884 12.8247 14.4806 12.3327C14.8094 12.1514 15.1254 11.8495 15.7574 11.2458L18.4759 8.64916C19.1079 8.04544 19.424 7.74359 19.6137 7.42961C20.1288 6.57747 20.1288 5.52757 19.6137 4.67542C19.424 4.36141 19.1079 4.05955 18.4759 3.45584C17.8439 2.85214 17.5278 2.55029 17.1991 2.36899C16.3069 1.877 15.2079 1.877 14.3157 2.36899C14.1334 2.4695 13.9551 2.60705 13.7246 2.81255" stroke="currentColor" stroke-width="2.1" stroke-linecap="round" fill="none"/>
</svg>
