<svg width="18" height="18" viewBox="0 0 18 18" xmlns="http://www.w3.org/2000/svg">
<path d="M7.70409 12.0389C6.37915 11.9007 5.18453 11.5744 4.16174 10.7745C4.03483 10.6749 3.9038 10.579 3.78799 10.4678C3.34032 10.0379 3.29521 9.54547 3.64945 9.03801C3.95249 8.60377 4.4612 8.4876 4.98996 8.73694C5.09234 8.78527 5.1899 8.84559 5.28333 8.91039C7.18947 10.2201 9.80802 10.2563 11.7213 8.96928C11.9109 8.82393 12.1135 8.70544 12.3483 8.64494C12.805 8.52769 13.2308 8.69541 13.4759 9.09494C13.7558 9.5512 13.7522 9.99654 13.4073 10.3508C12.8782 10.8939 12.2418 11.2868 11.5348 11.561C10.8663 11.8202 10.134 11.9507 9.40922 12.0373C9.51859 12.1563 9.57014 12.2149 9.63851 12.2836C10.6226 13.2724 11.6111 14.257 12.592 15.2489C12.9262 15.5868 12.996 16.0058 12.812 16.3989C12.6108 16.8285 12.1604 17.1111 11.7188 17.0809C11.439 17.0616 11.2208 16.9223 11.027 16.727C10.2843 15.9797 9.52771 15.2462 8.80009 14.4847C8.58834 14.2633 8.48649 14.3052 8.29961 14.4974C7.55248 15.2666 6.79318 16.0239 6.02939 16.777C5.68644 17.1151 5.27832 17.1759 4.88059 16.9828C4.4578 16.7779 4.18877 16.3463 4.20953 15.9126C4.22385 15.6192 4.36812 15.3951 4.56949 15.1941C5.54342 14.2216 6.51466 13.2466 7.48625 12.2725C7.55051 12.2077 7.61048 12.139 7.70409 12.0389Z" fill="currentColor"/>
<path d="M8.51078 8.65077C6.14713 8.64271 4.20895 6.68323 4.22273 4.31581C4.23633 1.92227 6.17577 -0.00660589 8.56269 1.70041e-05C10.9545 0.0064609 12.8742 1.96308 12.8622 4.38151C12.85 6.74409 10.8984 8.659 8.51078 8.65077ZM10.6589 4.32154C10.6548 3.14607 9.71866 2.21027 8.54551 2.2092C7.36252 2.20795 6.41795 3.16075 6.42708 4.34696C6.43585 5.51796 7.38006 6.44713 8.55643 6.44284C9.72922 6.43872 10.6629 5.49684 10.6589 4.32154Z" fill="currentColor"/>
</svg>
