<svg width="31" height="31" viewBox="0 0 31 31" xmlns="http://www.w3.org/2000/svg">
<path d="M21.3852 16.6712L20.7968 17.256C20.7968 17.256 19.3985 18.6465 15.5816 14.8512C11.7647 11.056 13.1631 9.66563 13.1631 9.66563L13.5335 9.29726C14.4462 8.38981 14.5322 6.9329 13.7359 5.86931L12.1072 3.69362C11.1217 2.37721 9.21736 2.20331 8.08778 3.32647L6.06039 5.34236C5.50029 5.89927 5.12496 6.6212 5.17048 7.42206C5.28692 9.47091 6.21391 13.8792 11.3866 19.0225C16.872 24.4767 22.0189 24.6934 24.1236 24.4972C24.7894 24.4352 25.3683 24.0962 25.8348 23.6322L27.6698 21.8079C28.9083 20.5762 28.5591 18.4649 26.9743 17.6035L24.5066 16.262C23.466 15.6963 22.1984 15.8624 21.3852 16.6712Z" fill="currentColor"/>
</svg>
