<svg width="23" height="23" viewBox="0 0 23 23" xmlns="http://www.w3.org/2000/svg">
<path d="M21.5149 11.1173L3.30658 2.49232L2.87533 2.39648C2.62116 2.39648 2.3774 2.49745 2.19768 2.67717C2.01796 2.8569 1.91699 3.10065 1.91699 3.35482L4.45658 11.0215H11.5003C11.7507 11.0331 11.9878 11.1379 12.165 11.3151C12.3423 11.4924 12.447 11.7294 12.4587 11.9798C12.4587 12.234 12.3577 12.4777 12.178 12.6575C11.9982 12.8372 11.7545 12.9382 11.5003 12.9382H4.45658L1.91699 20.6048C1.91699 20.859 2.01796 21.1027 2.19768 21.2825C2.3774 21.4622 2.62116 21.5632 2.87533 21.5632L3.30658 21.4673L21.5149 12.8423C21.6769 12.7638 21.8136 12.6413 21.9092 12.4888C22.0048 12.3362 22.0555 12.1598 22.0555 11.9798C22.0555 11.7998 22.0048 11.6234 21.9092 11.4709C21.8136 11.3183 21.6769 11.1958 21.5149 11.1173Z" fill="currentColor"/>
</svg>
