<svg width="24" height="24" viewBox="0 0 24 24" xmlns="http://www.w3.org/2000/svg">
<path fill-rule="evenodd" clip-rule="evenodd" d="M0 11.9997C0 5.37268 5.37257 0 11.9999 0C18.6271 0 24 5.37244 24 11.9997C24 18.6269 18.627 24 11.9998 24C5.37257 24 0 18.6267 0 11.9997ZM12.8186 13.5547C12.8227 13.5255 12.8268 13.4963 12.8274 13.4672C12.8274 13.4646 12.8278 13.4621 12.8281 13.4596C12.8285 13.4572 12.8288 13.4547 12.8288 13.4522H12.8287V4.98008C12.8287 4.52175 12.4571 4.15015 11.9987 4.15015C11.5404 4.15015 11.1688 4.52175 11.1688 4.98008V12.1429L7.75147 10.5314C7.3369 10.336 6.84225 10.5138 6.64681 10.9281C6.45137 11.3427 6.62897 11.8373 7.04354 12.0328L11.6448 14.2031C11.6494 14.2052 11.6542 14.2056 11.6587 14.2079C11.6986 14.2257 11.7403 14.2386 11.7831 14.2502C11.7892 14.2519 11.7953 14.254 11.8014 14.2561C11.8095 14.2589 11.8176 14.2617 11.8258 14.2635C11.8716 14.2733 11.9193 14.277 11.9675 14.2789C11.9722 14.279 11.977 14.2798 11.9817 14.2806C11.9872 14.2815 11.9927 14.2824 11.9982 14.2824C12.0484 14.2824 12.098 14.2762 12.147 14.2673C12.1609 14.2648 12.1744 14.2618 12.1881 14.2585C12.2263 14.2497 12.2632 14.238 12.2997 14.2239C12.3038 14.2223 12.3079 14.2209 12.312 14.2195C12.3175 14.2177 12.323 14.2159 12.3283 14.2135C12.3715 14.1948 12.4131 14.172 12.4527 14.1461C12.4593 14.1417 12.4655 14.137 12.4718 14.1324C12.4749 14.13 12.4781 14.1277 12.4813 14.1253C12.5122 14.1033 12.5412 14.0793 12.5688 14.0529L12.5714 14.0506C12.5797 14.0429 12.5877 14.0355 12.5956 14.0274C12.627 13.9947 12.6568 13.9598 12.683 13.9214C12.6844 13.9193 12.6864 13.9173 12.6878 13.9152C12.7108 13.8809 12.7317 13.8448 12.7498 13.8062C12.7507 13.804 12.7514 13.8017 12.7521 13.7995C12.7529 13.7968 12.7537 13.7941 12.755 13.7915C12.7656 13.7675 12.7736 13.7424 12.7816 13.717C12.7828 13.7132 12.7841 13.7093 12.7853 13.7054C12.7874 13.6988 12.7897 13.6923 12.7919 13.6858C12.7979 13.6682 12.8038 13.6507 12.8077 13.633C12.8115 13.6168 12.8133 13.6 12.8151 13.5834C12.8159 13.5762 12.8167 13.569 12.8176 13.5618L12.8186 13.5547Z" fill="currentColor"/>
</svg>
