<svg width="22" height="22" viewBox="0 0 22 22" xmlns="http://www.w3.org/2000/svg">
<path fill-rule="evenodd" clip-rule="evenodd" d="M20.1668 11.0007C20.1668 16.0632 16.0627 20.1673 11.0002 20.1673C5.93755 20.1673 1.8335 16.0632 1.8335 11.0007C1.8335 5.93804 5.93755 1.83398 11.0002 1.83398C16.0627 1.83398 20.1668 5.93804 20.1668 11.0007ZM11.0002 7.10482C10.4306 7.10482 9.96891 7.56652 9.96891 8.13607C9.96891 8.51576 9.6611 8.82357 9.28141 8.82357C8.90172 8.82357 8.59391 8.51576 8.59391 8.13607C8.59391 6.80713 9.67127 5.72982 11.0002 5.72982C12.3291 5.72982 13.4064 6.80713 13.4064 8.13607C13.4064 8.78767 13.1465 9.37998 12.7262 9.81265C12.6416 9.89964 12.561 9.98031 12.484 10.0572C12.2862 10.2549 12.1128 10.428 11.9607 10.6234C11.76 10.8814 11.6877 11.0711 11.6877 11.2298V11.9173C11.6877 12.297 11.3798 12.6048 11.0002 12.6048C10.6205 12.6048 10.3127 12.297 10.3127 11.9173V11.2298C10.3127 10.6292 10.5922 10.143 10.8757 9.77892C11.0853 9.50951 11.3489 9.24643 11.5628 9.03299C11.6273 8.96859 11.6873 8.90872 11.7399 8.85452C11.921 8.66813 12.0314 8.41569 12.0314 8.13607C12.0314 7.56652 11.5697 7.10482 11.0002 7.10482ZM11.0002 15.584C11.5064 15.584 11.9168 15.1736 11.9168 14.6673C11.9168 14.161 11.5064 13.7507 11.0002 13.7507C10.4939 13.7507 10.0835 14.161 10.0835 14.6673C10.0835 15.1736 10.4939 15.584 11.0002 15.584Z" fill="currentColor"/>
</svg>
