<svg width="16" height="16" viewBox="0 0 16 16" xmlns="http://www.w3.org/2000/svg">
<path fill-rule="evenodd" clip-rule="evenodd" d="M13.7703 9.22995C14.301 9.74812 14.8612 10.2356 15.3372 10.8061C15.5475 11.0596 15.7466 11.3212 15.8989 11.6153C16.1147 12.0335 15.9192 12.4937 15.5442 12.5187L13.2133 12.5176C12.6121 12.5675 12.1325 12.3255 11.7293 11.9145C11.4066 11.5857 11.1077 11.2359 10.7974 10.8961C10.6702 10.7572 10.537 10.6265 10.3779 10.5232C10.0597 10.3167 9.78353 10.3799 9.60169 10.7118C9.41649 11.0493 9.37448 11.4231 9.35629 11.7993C9.33132 12.3481 9.16542 12.4925 8.61407 12.5176C7.43578 12.5731 6.31753 12.3949 5.2787 11.8005C4.36284 11.2765 3.65263 10.5367 3.03447 9.69923C1.83089 8.06848 0.909193 6.27655 0.0808054 4.43441C-0.105658 4.01938 0.0307068 3.79659 0.488638 3.7887C1.24905 3.77393 2.00936 3.77498 2.77067 3.78765C3.07973 3.79217 3.28433 3.96944 3.40366 4.26141C3.81507 5.273 4.31847 6.23544 4.95035 7.12754C5.11863 7.36505 5.29022 7.60256 5.53456 7.76973C5.80487 7.95482 6.01068 7.89348 6.13784 7.59236C6.21854 7.40143 6.25386 7.19577 6.27205 6.99128C6.3323 6.28774 6.34024 5.58542 6.23457 4.88435C6.1697 4.44682 5.92326 4.16358 5.48667 4.08078C5.26388 4.03857 5.29705 3.95566 5.40492 3.8285C5.59228 3.60918 5.76849 3.47266 6.11976 3.47266H8.75406C9.16878 3.55451 9.26088 3.74081 9.31766 4.15811L9.31992 7.08427C9.3154 7.24582 9.40061 7.7252 9.69158 7.83213C9.92446 7.90825 10.078 7.72194 10.2177 7.57427C10.8484 6.90486 11.2986 6.11374 11.7007 5.29455C11.8792 4.93435 12.0327 4.56026 12.1814 4.1865C12.2916 3.90914 12.4645 3.77267 12.7769 3.77871L15.3122 3.78098C15.3874 3.78098 15.4635 3.78208 15.5363 3.79454C15.9635 3.86735 16.0806 4.05113 15.9486 4.46832C15.7407 5.12286 15.3362 5.66832 14.9407 6.2163C14.5179 6.80135 14.0657 7.36636 13.6464 7.95488C13.2611 8.49229 13.2917 8.76318 13.7703 9.22995Z" fill="currentColor"/>
</svg>
