<svg width="27" height="27" viewBox="0 0 27 27" fill="none" xmlns="http://www.w3.org/2000/svg">
<g id="card-svgrepo-com 1">
<path id="Vector" d="M15.7504 4.5H11.2504C7.00772 4.5 4.88641 4.5 3.56838 5.81802C2.6194 6.767 2.35369 8.13242 2.2793 10.4062H24.7214C24.6471 8.13242 24.3814 6.767 23.4323 5.81802C22.1144 4.5 19.993 4.5 15.7504 4.5Z" fill="#B3B3B3"/>
<path id="Vector_2" d="M11.25 22.5H15.75C19.9926 22.5 22.114 22.5 23.4319 21.1819C24.75 19.864 24.75 17.7426 24.75 13.5C24.75 13.0029 24.75 12.5347 24.7479 12.0938H2.25213C2.25 12.5347 2.25 13.0029 2.25 13.5C2.25 17.7426 2.25 19.864 3.56802 21.1819C4.88604 22.5 7.00736 22.5 11.25 22.5Z" fill="#B3B3B3"/>
<path id="Vector_3" fill-rule="evenodd" clip-rule="evenodd" d="M5.90625 18C5.90625 17.534 6.28401 17.1562 6.75 17.1562H11.25C11.716 17.1562 12.0937 17.534 12.0937 18C12.0937 18.466 11.716 18.8438 11.25 18.8438H6.75C6.28401 18.8438 5.90625 18.466 5.90625 18Z" fill="white"/>
<path id="Vector_4" fill-rule="evenodd" clip-rule="evenodd" d="M13.2188 18C13.2188 17.534 13.5965 17.1562 14.0625 17.1562H15.75C16.216 17.1562 16.5938 17.534 16.5938 18C16.5938 18.466 16.216 18.8438 15.75 18.8438H14.0625C13.5965 18.8438 13.2188 18.466 13.2188 18Z" fill="white"/>
</g>
</svg>
