<svg width="27" height="27" viewBox="0 0 27 27" fill="none" xmlns="http://www.w3.org/2000/svg">
<g id="MasterCard">
<path id="Vector" d="M8.55 4.94922C3.83891 4.94922 0 8.78813 0 13.4992C0 18.2103 3.83891 22.0492 8.55 22.0492C10.6597 22.0492 12.5901 21.2747 14.0836 20.0014C15.4308 21.0011 17.0933 21.5992 18.9 21.5992C23.3739 21.5992 27 17.9731 27 13.4992C27 9.02532 23.3739 5.39922 18.9 5.39922C17.0933 5.39922 15.4308 5.99733 14.0836 6.99707C12.5901 5.72377 10.6597 4.94922 8.55 4.94922ZM8.55 6.74922C10.1465 6.74922 11.6082 7.30156 12.7617 8.22227C11.5415 9.64025 10.8 11.4815 10.8 13.4992C10.8 15.517 11.5415 17.3582 12.7617 18.7762C11.6082 19.6969 10.1465 20.2492 8.55 20.2492C4.81189 20.2492 1.8 17.2373 1.8 13.4992C1.8 9.76111 4.81189 6.74922 8.55 6.74922Z" fill="#B3B3B3"/>
</g>
</svg>
