<svg width="27" height="27" viewBox="0 0 27 27" fill="none" xmlns="http://www.w3.org/2000/svg">
<g id="delivery-svgrepo-com 1">
<path id="Vector" d="M10.76 9.8218L11.3388 11.9167C11.8844 13.8916 12.1572 14.8791 12.9593 15.3284C13.7613 15.7775 14.7796 15.5129 16.8158 14.9837L18.9757 14.4224C21.0121 13.8932 22.0302 13.6286 22.4934 12.8505C22.9564 12.0726 22.6836 11.0851 22.138 9.11012L21.5593 7.01528C21.0136 5.04026 20.7408 4.05275 19.9387 3.60359C19.1366 3.15443 18.1184 3.41905 16.0821 3.94825L13.9222 4.50955C11.8859 5.03875 10.8677 5.30335 10.4046 6.08132C9.94153 6.85928 10.2144 7.8468 10.76 9.8218Z" fill="#B3B3B3"/>
<path id="Vector_2" d="M2.56218 5.90354C2.68676 5.45451 3.15177 5.1915 3.60079 5.31608L5.51745 5.84785C6.54895 6.13404 7.36526 6.92922 7.65003 7.95998L10.0699 16.7192L10.248 17.3342C10.9603 17.6 11.5721 18.0982 11.9603 18.7598L12.3091 18.6521L22.2879 16.0589C22.739 15.9416 23.1996 16.2122 23.3169 16.6632C23.4341 17.1142 23.1634 17.5748 22.7124 17.692L12.7704 20.2758L12.4007 20.39C12.3931 21.8198 11.4066 23.1257 9.91391 23.5136C8.12463 23.9785 6.28548 22.9487 5.80604 21.2133C5.32661 19.4779 6.38844 17.6941 8.17772 17.2291C8.26639 17.206 8.35517 17.1867 8.44391 17.1708L6.02346 8.40935C5.90166 7.96845 5.54509 7.60676 5.0663 7.47392L3.14964 6.94216C2.70061 6.81758 2.43759 6.35257 2.56218 5.90354Z" fill="#B3B3B3"/>
</g>
</svg>
