<svg width="27" height="27" viewBox="0 0 27 27" fill="none" xmlns="http://www.w3.org/2000/svg">
<g id="quality-reward-svgrepo-com 1" clip-path="url(#clip0_744_2035)">
<g id="Group">
<g id="Group_2">
<g id="Group_3">
<path id="Vector" d="M26.874 21.3436L22.3645 13.5325C22.2431 13.3222 21.9394 13.3296 21.8251 13.5437C20.5175 15.9914 18.2296 17.6976 15.5971 18.2927C15.3954 18.3383 15.2965 18.5673 15.3999 18.7464L19.3933 25.6632C19.7875 26.346 20.7981 26.2511 21.0629 25.5133L22.3015 22.0623L25.9094 22.7146C26.6819 22.8542 27.2667 22.0238 26.874 21.3436Z" fill="#B3B3B3"/>
<path id="Vector_2" d="M11.4026 18.2927C8.76917 17.6973 6.48161 15.9903 5.17459 13.5438C5.06021 13.3296 4.75657 13.3223 4.63517 13.5325L0.125603 21.3435C-0.266792 22.0232 0.317134 22.8542 1.09006 22.7146L4.69798 22.0623L5.9366 25.5133C6.20138 26.2508 7.21193 26.3462 7.60622 25.6631L11.5996 18.7464C11.7031 18.5672 11.6043 18.3383 11.4026 18.2927Z" fill="#B3B3B3"/>
<path id="Vector_3" d="M21.1368 12.1054C22.1375 9.5779 21.8205 6.72355 20.289 4.47C17.0311 -0.323914 9.96788 -0.322595 6.71111 4.46953C5.17929 6.72355 4.86209 9.578 5.86272 12.1054C8.60322 19.0258 18.4093 18.9934 21.1368 12.1054ZM18.0133 8.87663L16.4268 10.4231L16.8013 12.6067C16.9315 13.3663 16.1315 13.9335 15.4608 13.5807L13.4998 12.5497L11.5387 13.5807C10.8624 13.9363 10.0689 13.3605 10.1982 12.6068L10.5727 10.4231L8.98612 8.87669C8.43895 8.34323 8.74149 7.41078 9.49812 7.30088L11.6907 6.98226L12.6711 4.9955C13.0093 4.31016 13.9897 4.30979 14.3281 4.9955L15.3086 6.98226L17.5011 7.30088C18.2575 7.41067 18.5608 8.34291 18.0133 8.87663Z" fill="#B3B3B3"/>
</g>
</g>
</g>
</g>
<defs>
<clipPath id="clip0_744_2035">
<rect width="27" height="27" fill="white"/>
</clipPath>
</defs>
</svg>
