<svg width="73" height="11" viewBox="0 0 73 11" fill="none" xmlns="http://www.w3.org/2000/svg">
<g id="Frame" clip-path="url(#clip0_215_2510)">
<path id="Vector" d="M12.8169 0H11.1631V9.13209H12.8169V0Z" fill="black"/>
<path id="Vector_2" d="M1.65378 1.86816H0V11.0002H1.65378V1.86816Z" fill="black"/>
<path id="Vector_3" d="M5.37498 1.24512H3.72119V10.3772H5.37498V1.24512Z" fill="black"/>
<path id="Vector_4" d="M9.09565 0.623047H7.44189V9.75515H9.09565V0.623047Z" fill="black"/>
<path id="Vector_5" d="M58.8781 5.25065L56.069 2.16309H54.4268V9.31185H56.1415V4.75081L58.7065 7.45307H59.023L61.544 4.75081V9.31185H63.2587V2.16309H61.6165L58.8781 5.25065Z" fill="black"/>
<path id="Vector_6" d="M71.4292 2.16309L67.179 6.80952V2.16309H65.4644V9.31185H67.0352L71.2854 4.66542V9.31185H73.0001V2.16309H71.4292Z" fill="black"/>
<path id="Vector_7" d="M45.1903 4.77893C45.1903 5.91709 45.82 6.8137 46.7865 7.18962L44.9741 9.31185H47.073L48.7216 7.38124H50.5056V9.31185H52.2203V2.16309H47.8548C46.2272 2.16309 45.1903 3.26378 45.1903 4.77893ZM50.5066 3.73759V5.85153H48.1727C47.3941 5.85153 46.9764 5.42247 46.9764 4.79351C46.9764 4.16454 47.4088 3.73551 48.1727 3.73551L50.5066 3.73759Z" fill="black"/>
<path id="Vector_8" d="M37.2217 3.59284C37.1168 6.05145 36.5921 7.63842 35.5647 7.63842H35.3076V9.35459L35.5815 9.36916C37.6415 9.48263 38.7801 7.69573 38.9669 3.79278H41.6765V9.31185H43.3881V2.16309H37.2795L37.2217 3.59284Z" fill="black"/>
<path id="Vector_9" d="M30.7666 2.06348C28.4474 2.06348 26.7788 3.65047 26.7788 5.73732C26.7788 7.89602 28.5943 9.42678 30.7666 9.42678C33.0291 9.42678 34.7869 7.8106 34.7869 5.73732C34.7869 3.66402 33.0291 2.06348 30.7666 2.06348ZM30.7666 7.71067C29.4558 7.71067 28.5628 6.86719 28.5628 5.73732C28.5628 4.57935 29.4569 3.75877 30.7666 3.75877C32.0763 3.75877 32.9997 4.61684 32.9997 5.73732C32.9997 6.85778 32.0637 7.71067 30.7666 7.71067Z" fill="black"/>
<path id="Vector_10" d="M24.9599 2.17676H18.9079L18.8502 3.60652C18.7641 5.66629 18.2205 7.62506 17.1932 7.65316L16.7178 7.66774V11H18.4472V9.31306H24.4551V11H26.1992V7.65316H24.9599V2.17676ZM23.2451 7.65316H19.5858C20.205 6.72427 20.5366 5.37991 20.5943 3.8075H23.2451V7.65316Z" fill="black"/>
</g>
<defs>
<clipPath id="clip0_215_2510">
<rect width="73" height="11" fill="white"/>
</clipPath>
</defs>
</svg>
