<svg width="33" height="33" viewBox="0 0 33 33" fill="none" xmlns="http://www.w3.org/2000/svg">
<g id="bag-5-svgrepo-com 1">
<g id="Group">
<path id="Vector" d="M19.1819 14.6504H13.7988V16.5724H19.1819V14.6504Z" fill="#C97A4D"/>
<path id="Vector_2" d="M32.7363 23.5679L32.7379 23.5669L32.7368 23.5653C32.7363 23.5637 32.7294 23.541 32.7161 23.5003C32.7119 23.4834 32.7067 23.4686 32.7019 23.4522C32.1497 21.6807 31.6016 19.9067 31.0567 18.1321C30.7856 17.2485 30.5156 16.3638 30.2466 15.4792C30.1314 15.1013 29.9639 14.6949 29.828 14.2943C29.7609 14.0946 29.7006 13.898 29.6595 13.712C29.6172 13.527 29.5939 13.3526 29.5939 13.2009C29.5939 13.1307 29.5987 13.0651 29.6087 13.0049C29.6816 12.5462 29.762 11.8745 29.762 11.1589C29.7615 10.5221 29.7006 9.85203 29.4961 9.25487C29.3937 8.95735 29.253 8.67569 29.057 8.43258C28.8625 8.19049 28.6083 7.98869 28.2997 7.86391L28.2976 7.86288C28.1084 7.78624 27.9123 7.75717 27.7232 7.75769C27.3564 7.7593 27.0102 7.85972 26.6915 7.96961C26.3744 8.0795 26.0827 8.20422 25.8634 8.27299C25.0812 8.52184 24.297 8.75865 23.5091 8.97695C23.4404 8.38295 23.3611 7.78785 23.2343 7.19598C23.0746 6.45187 22.839 5.71201 22.4542 4.99117C21.8639 3.88876 21.0167 2.95973 19.9944 2.30334C18.9718 1.64753 17.7719 1.26648 16.4906 1.26758C16.4893 1.26758 16.489 1.26758 16.4878 1.26758C15.2416 1.26648 14.07 1.628 13.065 2.25268C12.0592 2.87839 11.217 3.76778 10.6177 4.82791C10.1992 5.5688 9.94286 6.33456 9.77006 7.10723C9.6313 7.72656 9.54596 8.35124 9.47306 8.97695C8.56646 8.72481 7.66541 8.44843 6.76513 8.16097C6.54006 8.08911 6.29668 8.00035 6.04093 7.92739C5.7857 7.85398 5.51777 7.79423 5.23398 7.79423C4.99222 7.7932 4.73511 7.8407 4.49541 7.96864C4.25571 8.09652 4.04334 8.29942 3.87209 8.56896C3.60602 8.98597 3.4514 9.45474 3.36104 9.92718C3.27145 10.4007 3.24451 10.8811 3.24451 11.3297C3.24451 11.4708 3.2476 11.6088 3.25134 11.7425C3.26004 11.9894 3.30367 12.2303 3.34035 12.4607C3.37838 12.6911 3.40989 12.9088 3.40931 13.0853C3.40931 13.1953 3.39771 13.2867 3.37651 13.357C3.21376 13.8987 3.05018 14.4393 2.8864 14.981C2.20784 17.2191 1.52032 19.4556 0.828029 21.6899C0.641953 22.2914 0.436412 22.9266 0.276246 23.5766C0.116273 24.2259 0.000515625 24.8918 0 25.5582C0 26.1047 0.0790195 26.6526 0.279855 27.1812C0.480691 27.7107 0.804117 28.2174 1.27256 28.6772C1.70859 29.1053 2.22093 29.4415 2.77136 29.7131C3.59784 30.1205 4.51314 30.3827 5.41845 30.5787C6.32395 30.7732 7.22107 30.9011 8.00482 31.028C10.5425 31.4391 13.1193 31.6727 15.6894 31.7255C15.971 31.7308 16.2519 31.7335 16.5331 31.7335C18.7296 31.7335 20.9259 31.5638 23.0954 31.2959C25.4534 31.0026 28.0044 30.6617 30.2614 29.6508C31.1794 29.2386 31.8738 28.6054 32.3272 27.8482C32.7828 27.0918 33 26.2162 33 25.3151C33 24.737 32.9102 24.1477 32.7363 23.5679ZM11.3405 8.27602C11.4277 7.55099 11.6203 6.85657 11.9041 6.22712C12.3296 5.28166 12.9573 4.48476 13.7316 3.92879C14.119 3.65035 14.5433 3.43095 15.0028 3.2809C15.4626 3.13021 15.9581 3.04836 16.4907 3.04836C17.201 3.04836 17.845 3.19363 18.4266 3.4537C19.2975 3.84371 20.0321 4.49746 20.5874 5.33509C21.1416 6.17111 21.511 7.18844 21.6415 8.27602L21.8122 9.82605C21.4633 9.90746 21.1087 9.98564 20.751 10.0581C19.3164 10.3503 17.8267 10.5532 16.4907 10.5528C15.4052 10.5533 14.2177 10.4196 13.0413 10.2125C12.4088 10.1004 11.7801 9.9683 11.17 9.82612L11.3405 8.27602ZM5.29689 10.5591C5.32383 10.3635 5.35928 10.1886 5.39808 10.0433C5.4187 9.96508 5.44088 9.89689 5.46227 9.83823C5.58383 9.87581 5.72975 9.9228 5.89591 9.97571C6.38292 10.1321 7.04505 10.3451 7.82139 10.5771C8.98638 10.9254 10.4109 11.3159 11.9131 11.6214C13.4164 11.9263 14.9962 12.1477 16.4907 12.1477C17.7055 12.1477 18.9759 12.0008 20.2165 11.783C22.0765 11.4554 23.8701 10.965 25.2705 10.5443C25.9702 10.334 26.5716 10.1406 27.0293 9.9937C27.2201 9.93343 27.3845 9.88058 27.5197 9.83823C27.5747 9.99047 27.6312 10.2077 27.6715 10.4682C27.7153 10.7504 27.7417 11.0818 27.7412 11.4416C27.7417 12.1101 27.6503 12.878 27.4315 13.6364C27.2122 14.3958 26.8655 15.1447 26.3629 15.7978C26.123 16.1097 25.8271 16.3998 25.4825 16.6667C24.8805 17.1348 24.1296 17.5307 23.3115 17.8499C22.0849 18.3308 20.7103 18.6416 19.4777 18.8271C18.8609 18.9195 18.2794 18.9819 17.7688 19.021C17.2589 19.0601 16.8189 19.0744 16.4907 19.0744C15.99 19.0755 15.233 19.039 14.3573 18.9396C13.0432 18.7911 11.4554 18.4967 10.0241 17.983C9.30858 17.7262 8.63259 17.4155 8.04974 17.0498C7.46657 16.6841 6.97802 16.265 6.61889 15.7978C6.11602 15.1447 5.76939 14.3958 5.55057 13.6364C5.33124 12.8775 5.2401 12.1101 5.24036 11.4416C5.24036 11.1192 5.26124 10.8201 5.29689 10.5591ZM31.1213 26.2621C31.0124 26.6484 30.8301 26.9819 30.5695 27.2736C30.3084 27.5653 29.9654 27.8158 29.5253 28.0145C28.8758 28.3073 27.9705 28.5853 26.9288 28.8246C25.3651 29.1856 23.4912 29.4657 21.642 29.6538C19.7928 29.8425 17.9648 29.9397 16.4907 29.9397C14.525 29.9397 11.9318 29.7668 9.4942 29.436C8.27559 29.2701 7.09461 29.0651 6.05228 28.8246C5.01065 28.5852 4.10457 28.3072 3.45559 28.0144C3.16284 27.8823 2.91257 27.7258 2.70123 27.5515C2.38438 27.2878 2.15293 26.9834 1.99405 26.6319C1.83601 26.28 1.74997 25.8773 1.74997 25.4175C1.74997 25 1.82183 24.5361 1.97852 24.0329C2.80055 21.3959 3.79326 18.1711 4.59054 15.5436C4.80221 15.9659 5.05351 16.3786 5.35444 16.7702C5.68999 17.2062 6.08586 17.5888 6.52163 17.927C7.28417 18.5178 8.16647 18.9734 9.08808 19.3348C10.4716 19.876 11.9485 20.2047 13.2665 20.404C13.9257 20.5034 14.5446 20.5694 15.0916 20.6111C15.6396 20.6528 16.1147 20.6698 16.4907 20.6698C17.0633 20.6698 17.8687 20.6307 18.8037 20.5244C20.2069 20.3643 21.8972 20.0568 23.4953 19.4839C24.2948 19.1975 25.0722 18.8444 25.7788 18.4016C26.4848 17.9582 27.1232 17.4239 27.6268 16.7702C27.9286 16.3786 28.1796 15.9653 28.3915 15.5436C29.1879 18.1712 30.181 21.3969 31.0032 24.034C31.1597 24.5361 31.2315 25.0001 31.2315 25.4176C31.2317 25.7241 31.1937 26.0053 31.1213 26.2621Z" fill="#C97A4D"/>
</g>
</g>
</svg>
