<svg width="27" height="30" viewBox="0 0 27 30" fill="none" xmlns="http://www.w3.org/2000/svg">
<g id="Group 1574">
<path id="Vector" d="M2.02513 26.3576C3.66458 28.3331 6.7159 28.3331 12.8184 28.3331H13.8041C19.9067 28.3331 22.9581 28.3331 24.5975 26.3576M2.02513 26.3576C0.38568 24.3822 0.947999 21.3831 2.07264 15.3851C2.87242 11.1196 3.27233 8.98679 4.79052 7.72679M24.5975 26.3576C26.237 24.3822 25.6746 21.3831 24.55 15.3851C23.7502 11.1196 23.3503 8.98679 21.8321 7.72679M21.8321 7.72679C20.3139 6.4668 18.144 6.4668 13.8041 6.4668H12.8184C8.47865 6.4668 6.30872 6.4668 4.79052 7.72679" stroke="black" stroke-width="2"/>
<path id="Vector_2" d="M13.3124 14.9281L12.6035 15.6685C12.9999 16.048 13.625 16.048 14.0213 15.6685L13.3124 14.9281ZM12.6106 19.1231C12.0395 18.704 11.4102 18.1806 10.9338 17.6297C10.4305 17.0477 10.2375 16.5954 10.2375 16.3021H8.1875C8.1875 17.3543 8.79046 18.2854 9.38318 18.9706C10.0027 19.687 10.7692 20.3146 11.398 20.7759L12.6106 19.1231ZM10.2375 16.3021C10.2375 15.5149 10.5963 15.1723 10.9097 15.0624C11.2518 14.9426 11.8854 14.9808 12.6035 15.6685L14.0213 14.1878C12.8946 13.1091 11.4782 12.6909 10.2315 13.1279C8.95617 13.575 8.1875 14.8026 8.1875 16.3021H10.2375ZM15.2268 20.7759C15.8556 20.3146 16.6221 19.687 17.2416 18.9706C17.8344 18.2854 18.4373 17.3543 18.4373 16.3021H16.3874C16.3874 16.5954 16.1944 17.0477 15.691 17.6297C15.2146 18.1807 14.5853 18.704 14.0142 19.1231L15.2268 20.7759ZM18.4373 16.3021C18.4373 14.8026 17.6686 13.575 16.3932 13.1279C15.1466 12.6909 13.7302 13.1091 12.6035 14.1878L14.0213 15.6685C14.7395 14.9808 15.373 14.9426 15.7151 15.0624C16.0285 15.1723 16.3874 15.5149 16.3874 16.3021H18.4373ZM11.398 20.7759C11.9018 21.1455 12.4673 21.6058 13.3124 21.6059V19.5559C13.2791 19.5559 13.2584 19.5558 13.1841 19.5166C13.0667 19.4545 12.9199 19.35 12.6106 19.1231L11.398 20.7759ZM14.0142 19.1231C13.7049 19.35 13.5581 19.4545 13.4407 19.5166C13.3664 19.5558 13.3458 19.5559 13.3124 19.5559V21.6059C14.1575 21.6059 14.7231 21.1455 15.2268 20.7759L14.0142 19.1231Z" fill="#C97A4D"/>
<path id="Vector_3" d="M9.21094 6.46657V5.09993C9.21094 2.83561 11.0465 1 13.3109 1C15.5753 1 17.4108 2.83561 17.4108 5.09993V6.46657" stroke="black" stroke-width="2" stroke-linecap="round"/>
</g>
</svg>
