<svg width="50" height="50" viewBox="0 0 50 50" fill="none" xmlns="http://www.w3.org/2000/svg">
<g id="gift-box-open-svgrepo-com 1">
<g id="gift_box-box_open-heart-love-valentine">
<path id="Vector" d="M9.61582 17.005L7.66738 15.007C6.98213 14.3043 6.84834 13.176 7.46192 12.41C8.15967 11.5387 9.41719 11.4918 10.1752 12.2692C10.9333 11.4919 12.1908 11.5388 12.8886 12.41C13.5021 13.1761 13.3684 14.3043 12.6831 15.007L10.7346 17.005C10.4279 17.3195 9.92246 17.3195 9.61582 17.005ZM42.9686 22.6568V39.8443C42.9686 41.5702 41.5694 42.9693 39.8436 42.9693H33.5874C32.7244 42.9693 32.0249 42.2698 32.0249 41.4068V22.6568H26.5562V41.4068C26.5562 42.2698 25.8566 42.9693 24.9937 42.9693H18.7498C17.0243 42.9693 15.6248 41.5712 15.6248 39.8457C15.6248 38.3414 15.6189 36.7632 15.6174 35.6502L13.4295 41.5084C13.1326 42.3131 12.2264 42.7271 11.4217 42.4224L9.96074 41.8756C8.34356 41.274 7.52324 39.4693 8.12481 37.8521C11.5884 28.586 10.9717 30.2374 11.6795 28.3365L16.0701 29.9771L17.9686 24.9017V24.8541L13.5936 23.2193C14.3026 21.3147 13.6779 22.9878 17.1482 13.7037C17.7576 12.0865 19.5545 11.2662 21.1717 11.8677L22.6326 12.4146C23.4446 12.7186 23.8565 13.6232 23.5526 14.4352L23.3551 14.9632C24.5223 14.6785 25.6788 14.9447 26.5623 15.5614C28.2717 14.3689 30.6676 14.6803 32.0036 16.4193C33.0462 17.7763 33.0602 19.6541 32.1396 21.0942H41.4061C42.2654 21.0943 42.9686 21.7974 42.9686 22.6568ZM22.5154 17.2072L21.8811 18.9025C21.8982 19.5493 22.1528 20.2005 22.6492 20.7017L23.0375 21.0943C23.8503 21.0943 29.2013 21.0943 30.0876 21.0943L30.4755 20.7021C31.3895 19.7786 31.5139 18.3465 30.7647 17.3716C29.8239 16.1468 28.1176 16.1183 27.1178 17.1282C26.8248 17.425 26.2999 17.425 26.0069 17.1282C25.0854 16.1967 23.519 16.1131 22.5154 17.2072ZM39.8436 32.0318C39.8436 31.6021 39.492 31.2506 39.0623 31.2506C38.6326 31.2506 38.2811 31.6021 38.2811 32.0318V37.1177C38.2811 37.5552 38.6326 37.899 39.0623 37.899C39.492 37.899 39.8436 37.5552 39.8436 37.1177V32.0318ZM39.8436 24.9537C39.8436 24.524 39.492 24.1724 39.0623 24.1724C38.6326 24.1724 38.2811 24.524 38.2811 24.9537V28.1256C38.2811 28.5552 38.6326 28.9068 39.0623 28.9068C39.492 28.9068 39.8436 28.5552 39.8436 28.1256V24.9537ZM36.2048 15.8682C36.9194 16.5907 38.0802 16.5907 38.7948 15.8682L41.9687 12.6597C43.1259 11.4899 43.3251 9.61003 42.3216 8.30378C41.1093 6.72546 38.8521 6.61989 37.4998 7.98688C36.1476 6.61989 33.8903 6.72546 32.678 8.30378C31.6746 9.61003 31.8738 11.4899 33.031 12.6597L36.2048 15.8682Z" fill="#C97A4D"/>
</g>
</g>
</svg>
