<svg width="37" height="37" viewBox="0 0 37 37" fill="none" xmlns="http://www.w3.org/2000/svg">
<g id="vip-1-svgrepo-com 1" clip-path="url(#clip0_407_2448)">
<g id="&#233;&#161;&#181;&#233;&#157;&#162;-1">
<g id="Business">
<g id="VIP_1_fill">
<path id="&#229;&#189;&#162;&#231;&#138;&#182;" fill-rule="evenodd" clip-rule="evenodd" d="M26.8555 4.625C27.8768 4.625 28.8259 5.13017 29.3977 5.9635L29.5326 6.17857L34.6711 15.1711C35.3179 16.3029 35.1795 17.7092 34.3495 18.6907L34.1743 18.8811L19.8628 33.1925C19.1605 33.895 18.0507 33.9418 17.2939 33.333L17.1375 33.1925L2.82601 18.8811C1.90428 17.9593 1.66781 16.5662 2.21027 15.4009L2.32918 15.1711L7.46775 6.17857C7.9745 5.29178 8.88398 4.71839 9.89118 4.63542L10.1448 4.625H26.8555ZM11.2434 14.3265C10.6414 14.9286 10.6414 15.9048 11.2434 16.5068L17.1376 22.4009C17.8901 23.1535 19.1103 23.1535 19.8628 22.4009L25.7569 16.5068C26.3591 15.9048 26.3591 14.9286 25.7569 14.3265C25.1549 13.7245 24.1789 13.7245 23.5767 14.3265L18.5001 19.4031L13.4237 14.3265C12.8216 13.7245 11.8455 13.7245 11.2434 14.3265Z" fill="#C97A4D"/>
</g>
</g>
</g>
</g>
<defs>
<clipPath id="clip0_407_2448">
<rect width="37" height="37" fill="white"/>
</clipPath>
</defs>
</svg>
