<svg width="43" height="43" viewBox="0 0 43 43" fill="none" xmlns="http://www.w3.org/2000/svg">
<g id="bag-heart-svgrepo-com 1">
<path id="Vector" fill-rule="evenodd" clip-rule="evenodd" d="M14.7818 10.7773C14.7816 10.7685 14.7815 10.7596 14.7815 10.7507V8.95898C14.7815 5.24832 17.7896 2.24023 21.5003 2.24023C25.211 2.24023 28.219 5.24832 28.219 8.95898V10.7507C28.219 10.7596 28.219 10.7685 28.2189 10.7773C30.5251 10.8466 31.9364 11.0954 33.0137 11.9895C34.5065 13.2284 34.8996 15.3255 35.6862 19.5196L37.0299 26.6863C38.1357 32.5839 38.6885 35.5326 37.0765 37.475C35.4646 39.4173 32.4644 39.4173 26.4639 39.4173H16.5366C10.5362 39.4173 7.53596 39.4173 5.92398 37.475C4.31198 35.5326 4.86489 32.5839 5.97069 26.6863L7.31444 19.5196C8.10082 15.3255 8.49402 13.2284 9.9868 11.9895C11.0642 11.0954 12.4755 10.8466 14.7818 10.7773ZM17.469 8.95898C17.469 6.73259 19.274 4.92773 21.5003 4.92773C23.7266 4.92773 25.5315 6.73259 25.5315 8.95898V10.7507C25.5315 10.7506 25.5315 10.7507 25.5315 10.7507C25.3966 10.7506 25.2596 10.7507 25.1202 10.7507H17.8803C17.741 10.7507 17.6039 10.7507 17.469 10.7507V8.95898ZM16.1253 23.6447C16.1253 25.4086 18.2122 27.2721 19.7853 28.4265C20.5375 28.9783 20.9135 29.2543 21.5003 29.2543C22.0871 29.2543 22.4631 28.9783 23.2151 28.4265C24.7882 27.2723 26.8753 25.4086 26.8753 23.6447C26.8753 20.6469 23.9189 19.5277 21.5003 21.8434C19.0815 19.5277 16.1253 20.6469 16.1253 23.6447Z" fill="#C97A4D"/>
</g>
</svg>
