<svg width="45" height="45" viewBox="0 0 45 45" fill="none" xmlns="http://www.w3.org/2000/svg">
<g id="bag-check-svgrepo-com (1) 1">
<path id="Vector" fill-rule="evenodd" clip-rule="evenodd" d="M22.5001 5.15625C20.1702 5.15625 18.2814 7.04505 18.2814 9.375V9.86227C19.3259 9.84373 20.4719 9.84373 21.7299 9.84375H23.2706C24.5283 9.84373 25.6743 9.84373 26.7189 9.86227V9.375C26.7189 7.04505 24.8302 5.15625 22.5001 5.15625ZM29.5314 9.98987V9.375C29.5314 5.49174 26.3834 2.34375 22.5001 2.34375C18.6169 2.34375 15.4689 5.49174 15.4689 9.375V9.98987C15.2013 10.0129 14.9427 10.0396 14.6928 10.0704C12.7991 10.3044 11.2379 10.7959 9.91175 11.8966C8.58558 12.9972 7.81478 14.441 7.23582 16.2592C6.67476 18.0211 6.25006 20.2864 5.71617 23.1339L5.6774 23.3407C4.92402 27.3585 4.33032 30.5248 4.22136 33.021C4.10969 35.5796 4.49033 37.6987 5.93365 39.4378C7.37699 41.1769 9.38965 41.9417 11.925 42.3034C14.3985 42.6562 17.62 42.6562 21.7077 42.6562H23.2925C27.3802 42.6562 30.6018 42.6562 33.0753 42.3034C35.6107 41.9417 37.6233 41.1769 39.0667 39.4378C40.5101 37.6987 40.8907 35.5796 40.7789 33.021C40.67 30.5248 40.0764 27.3585 39.323 23.3407L39.2842 23.1339C38.7502 20.2864 38.3255 18.0212 37.7645 16.2592C37.1855 14.441 36.4147 12.9972 35.0885 11.8966C33.7623 10.7959 32.2012 10.3044 30.3074 10.0704C30.0577 10.0396 29.7989 10.0129 29.5314 9.98987ZM15.0377 12.8617C13.4335 13.0599 12.4647 13.4327 11.7079 14.0608C10.9512 14.6889 10.4062 15.5724 9.91574 17.1125C9.4135 18.6898 9.01834 20.7836 8.46312 23.7448C7.68365 27.9021 7.13037 30.8713 7.03118 33.1436C6.9337 35.3773 7.29194 36.6705 8.09791 37.6417C8.90386 38.6128 10.109 39.2032 12.3223 39.519C14.574 39.8404 17.5944 39.8437 21.824 39.8437H23.1762C27.4059 39.8437 30.4263 39.8404 32.678 39.519C34.8912 39.2032 36.0965 38.6128 36.9024 37.6417C37.7084 36.6705 38.0666 35.3773 37.9691 33.1436C37.8699 30.8713 37.3167 27.9021 36.5371 23.7448C35.9819 20.7836 35.5869 18.6898 35.0846 17.1125C34.5941 15.5724 34.0492 14.6889 33.2924 14.0608C32.5357 13.4327 31.5669 13.0599 29.9626 12.8617C28.3199 12.6587 26.189 12.6562 23.1762 12.6562H21.824C18.8112 12.6562 16.6804 12.6587 15.0377 12.8617ZM27.1844 22.3864C27.7649 22.9024 27.8172 23.7913 27.3012 24.3718L22.3012 29.9968C22.0524 30.2766 21.7023 30.4457 21.3284 30.4665C20.9546 30.4875 20.5878 30.3583 20.3094 30.1078L17.8094 27.8578C17.2321 27.3382 17.1853 26.4491 17.7049 25.8718C18.2244 25.2945 19.1137 25.2476 19.6908 25.7672L21.1392 27.0707L25.1992 22.5032C25.715 21.9227 26.6039 21.8706 27.1844 22.3864Z" fill="#C97A4D"/>
</g>
</svg>
