<svg width="37" height="37" viewBox="0 0 37 37" fill="none" xmlns="http://www.w3.org/2000/svg">
<g id="document-duplication-svgrepo-com 1">
<g id="Group">
<path id="Vector" d="M22.4147 24.2441H8.36719V25.5874H22.4147V24.2441Z" fill="#C97A4D"/>
<path id="Vector_2" d="M22.4147 18.8047H8.36719V20.1436H22.4147V18.8047Z" fill="#C97A4D"/>
<path id="Vector_3" d="M22.4147 13.3594H8.36719V14.7026H22.4147V13.3594Z" fill="#C97A4D"/>
<path id="Vector_4" d="M22.415 7.91797H15.7969V9.26124H22.415V7.91797Z" fill="#C97A4D"/>
<path id="Vector_5" d="M27.8305 28.6308V2.86273C27.8305 2.69695 27.8163 2.53009 27.7877 2.37364C27.555 1.02545 26.3775 0 24.9634 0H13.3466C12.5111 0 11.7135 0.332639 11.1251 0.92117L3.87625 8.165C3.28721 8.75903 2.95508 9.55604 2.95508 10.3921V28.6308C2.95508 30.2063 4.24184 31.493 5.82279 31.493H24.9634C26.5439 31.493 27.8305 30.2063 27.8305 28.6308ZM12.3311 1.9894V8.42639C12.3311 9.12462 12.0605 9.39468 11.3672 9.39468H4.93024L12.3311 1.9894ZM4.56465 28.6308V10.8236H12.2263C12.4782 10.8236 12.7153 10.7622 12.924 10.6529C13.2187 10.5058 13.4559 10.2682 13.5981 9.9788C13.7078 9.76966 13.7644 9.53689 13.7644 9.2904V1.6095H24.9634C25.4806 1.6095 25.9268 1.92241 26.1167 2.37364C26.1832 2.52568 26.2162 2.68705 26.2162 2.86273V28.6308C26.2162 29.3186 25.6562 29.884 24.9634 29.884H5.82287C5.12955 29.884 4.56465 29.3186 4.56465 28.6308Z" fill="#C97A4D"/>
<path id="Vector_6" d="M31.1816 5.50781H29.2498L29.3492 7.11731H31.1815C31.8748 7.11731 32.4353 7.67723 32.4353 8.37054V34.1385C32.4353 34.8264 31.8748 35.3917 31.1815 35.3917H12.0366C11.5189 35.3917 11.0726 35.0733 10.8826 34.6271C10.8212 34.4756 10.7833 34.3142 10.7833 34.1385V33.0183H9.17383V34.1386C9.17383 34.3044 9.18814 34.4702 9.21668 34.6272C9.44938 35.9704 10.6269 37.0008 12.0366 37.0008H31.1817C32.7626 37.0008 34.045 35.7141 34.045 34.1386V8.37062C34.0449 6.78966 32.7626 5.50781 31.1816 5.50781Z" fill="#C97A4D"/>
</g>
</g>
</svg>
