<svg width="37" height="37" viewBox="0 0 37 37" fill="none" xmlns="http://www.w3.org/2000/svg">
<g id="thread-fashion-svgrepo-com 1" clip-path="url(#clip0_411_4029)">
<g id="Group">
<g id="Group_2">
<g id="Group_3">
<path id="Vector" d="M34.7006 22.1878L27.1513 19.9857L27.1194 20.0048L27.099 19.9703L22.7133 18.6913L22.6705 18.7188L22.6399 18.6703L20.8735 18.1548L21.2307 16.93L22.5155 17.3045L32.9813 10.6445C34.3962 10.2675 35.5164 9.7023 36.2105 9.0108L36.7048 9.78779L24.1453 17.7803L26.9758 18.6058L37.0003 12.6539V7.33547C37.0003 6.09084 35.8379 5 33.8106 4.29317V2.87005C33.8106 1.19487 31.2436 0.318359 28.7072 0.318359C26.1708 0.318359 23.6037 1.19487 23.6037 2.87005V4.29324C21.5764 5.00007 20.4141 6.09091 20.4141 7.33554V14.6245L26.5599 11.0394C27.2418 11.1172 27.9576 11.1631 28.7072 11.1631C28.7678 11.1631 28.8258 11.16 28.8865 11.1593L20.4141 16.1013V20.408L31.3974 23.9893L34.7006 22.1878ZM28.7072 1.59413C31.0815 1.59413 32.5348 2.42027 32.5348 2.86998C32.5348 3.31968 31.0816 4.14589 28.7072 4.14589C26.3327 4.14589 24.8796 3.31976 24.8796 2.87005C24.8796 2.42034 26.3328 1.59413 28.7072 1.59413ZM24.8796 4.6141C24.9033 4.62689 24.9306 4.63773 24.9549 4.65045C25.0481 4.69894 25.1425 4.74548 25.2426 4.78949C25.2828 4.80669 25.3256 4.82266 25.367 4.83928C25.4614 4.87816 25.5571 4.91581 25.6566 4.95028C25.6936 4.96365 25.7319 4.97514 25.7702 4.98793C25.8831 5.02493 25.9979 5.05998 26.1159 5.09257C26.1402 5.09893 26.1644 5.10536 26.1893 5.11172C26.9625 5.31587 27.8358 5.42174 28.7072 5.42174C29.5785 5.42174 30.4519 5.31587 31.2251 5.11172C31.25 5.10536 31.2742 5.09893 31.2985 5.09257C31.4165 5.06005 31.5313 5.02493 31.6442 4.98793C31.6825 4.97514 31.7208 4.96372 31.7578 4.95028C31.8573 4.91581 31.953 4.87823 32.0474 4.83928C32.0889 4.82266 32.1316 4.80676 32.1718 4.78949C32.2719 4.74548 32.3663 4.69894 32.4595 4.65045C32.4837 4.63766 32.5111 4.62682 32.5348 4.6141V6.61592C32.2668 6.87745 30.9259 7.33554 28.7072 7.33554C26.4884 7.33554 25.1475 6.87752 24.8796 6.61592V4.6141H24.8796ZM28.7072 9.88723C24.6908 9.88723 21.69 8.53992 21.69 7.33554C21.69 6.75756 22.4185 6.12922 23.6038 5.64692V6.69758C23.6038 8.55777 28.1854 8.61139 28.7072 8.61139C29.2291 8.61139 33.8107 8.55777 33.8107 6.69758V5.64692C34.996 6.12922 35.7245 6.75756 35.7245 7.33554C35.7244 8.53992 32.7236 9.88723 28.7072 9.88723Z" fill="#C97A4D"/>
<path id="Vector_2" d="M28.6523 19.0954L31.4082 19.8992L37.0003 16.5437V14.1387L28.6523 19.0954Z" fill="#C97A4D"/>
<path id="Vector_3" d="M36.9994 20.9331V18.0312L33.0762 20.3851L36.2875 21.3216L36.9994 20.9331Z" fill="#C97A4D"/>
<path id="Vector_4" d="M20.4141 25.6406V29.9811L25.3599 27.2833L20.4141 25.6406Z" fill="#C97A4D"/>
<path id="Vector_5" d="M29.8579 24.8293L20.4141 21.75V24.2953L26.8922 26.4471L29.8579 24.8293Z" fill="#C97A4D"/>
<path id="Vector_6" d="M23.6027 33.3573V34.7671C23.6027 36.6273 28.1843 36.6809 28.7061 36.6809C29.228 36.6809 33.8096 36.6273 33.8096 34.7671V33.3566C35.7711 32.6696 36.9992 31.5787 36.9992 30.3016V26.9148L26.4663 32.7078C25.801 32.6185 25.172 32.4852 24.5845 32.3187L24.5717 32.2944L36.9992 25.459V22.3867L20.6797 31.2884C21.1352 32.1369 22.1724 32.8552 23.6027 33.3573ZM24.8785 33.7215C26.0115 33.9818 27.3052 34.1291 28.7061 34.1291C30.1064 34.1291 31.4001 33.9818 32.5337 33.7221V34.6854C32.2658 34.9469 30.9249 35.405 28.7061 35.405C26.4874 35.405 25.1465 34.9469 24.8785 34.6854V33.7215Z" fill="#C97A4D"/>
<path id="Vector_7" d="M15.3103 4.14648C13.903 4.14648 12.7586 5.29095 12.7586 6.69817C12.7586 7.58169 13.2109 8.36129 13.8954 8.81931L8.93106 20.7435L3.96664 8.81931C4.65114 8.36129 5.10345 7.58169 5.10345 6.69817C5.10345 5.29088 3.95898 4.14648 2.55176 4.14648C1.14447 4.14648 0 5.29088 0 6.69817C0 8.10547 1.14447 9.24986 2.55169 9.24986C2.62186 9.24986 2.68755 9.23454 2.75584 9.22948L8.24013 22.4027L4.52294 31.3324C4.38708 31.6571 4.54079 32.0309 4.86613 32.1662C4.94649 32.2 5.02945 32.2154 5.11176 32.2154C5.36122 32.2154 5.59847 32.068 5.70058 31.8224L8.93106 24.0619L12.1615 31.8224C12.2636 32.068 12.5009 32.2154 12.7504 32.2154C12.8327 32.2154 12.9156 32.2 12.996 32.1662C13.3213 32.0309 13.4751 31.6572 13.3392 31.3324L9.62199 22.4027L15.1063 9.22941C15.1746 9.23454 15.2403 9.24979 15.3104 9.24979C16.7177 9.24979 17.8621 8.10532 17.8621 6.6981C17.862 5.29088 16.7176 4.14648 15.3103 4.14648Z" fill="#C97A4D"/>
</g>
</g>
</g>
</g>
<defs>
<clipPath id="clip0_411_4029">
<rect width="37" height="37" fill="white"/>
</clipPath>
</defs>
</svg>
