<svg width="37" height="37" viewBox="0 0 37 37" fill="none" xmlns="http://www.w3.org/2000/svg">
<g id="leather-fashion-svgrepo-com (1) 1" clip-path="url(#clip0_411_4071)">
<g id="Group">
<g id="Group_2">
<g id="Group_3">
<path id="Vector" d="M33.7439 11.5105C33.9291 11.387 33.9908 11.1402 33.9291 10.955V10.8933C33.4971 8.79485 32.3244 6.94331 30.5963 5.64723C30.4112 5.52377 30.226 5.46207 29.9792 5.58553C27.819 6.32615 26.0909 6.32615 24.7331 5.52384C22.573 4.22776 22.2027 1.14183 22.2027 1.14183C22.2027 0.894979 22.0175 0.709825 21.7707 0.648058C19.6723 -0.216019 17.327 -0.216019 15.1668 0.648058C14.9817 0.709753 14.7965 0.894907 14.7965 1.14183C14.7965 1.14183 14.4262 4.16599 12.266 5.52384C10.9083 6.38792 9.11841 6.38792 6.95825 5.58553C6.7731 5.46207 6.58794 5.52384 6.40279 5.64723C4.6747 6.94331 3.50208 8.79485 3.07001 10.8932V10.9549C3.07001 11.1401 3.1317 11.3869 3.25516 11.5104C5.10671 13.3619 6.15594 16.1393 6.15594 19.1017C6.15594 22.0642 5.10671 24.8415 3.25516 26.6931C3.07001 26.8165 3.00832 27.0634 3.07001 27.2485V27.3102C3.50201 29.4086 4.6747 31.2602 6.40279 32.5562C6.58794 32.6797 6.7731 32.7414 6.95825 32.6797C7.32856 32.5562 15.105 29.9024 17.9441 36.6296C18.0057 36.8765 18.2527 36.9999 18.4995 36.9999C18.7464 36.9999 18.9933 36.8765 19.055 36.5679C21.9558 29.9024 29.7322 32.4945 30.0408 32.618C30.2259 32.7415 30.4111 32.6797 30.5962 32.5563C32.3243 31.2602 33.497 29.4087 33.929 27.3103V27.2486C33.929 27.0634 33.8673 26.8166 33.7439 26.6931C29.9174 22.8666 29.9174 15.3369 33.7439 11.5105ZM30.1026 31.322C28.4979 30.89 21.7706 29.347 18.4995 34.9634C16.5245 31.6306 13.3152 30.8283 10.723 30.8283C8.99495 30.8283 7.51371 31.1986 6.89649 31.3838C5.6621 30.3345 4.73633 28.9151 4.36602 27.3104C6.27926 25.2737 7.39018 22.3112 7.39018 19.1019C7.39018 15.8926 6.27926 12.9301 4.36602 10.8316C4.73633 9.22693 5.6621 7.80746 6.89649 6.75823C9.30349 7.56054 11.3402 7.49884 12.9449 6.51138C15.105 5.15346 15.784 2.5613 15.9691 1.57383C17.6355 1.01837 19.3636 1.01837 21.03 1.57383C21.2151 2.5613 21.8941 5.15346 24.0541 6.51131C25.6588 7.49877 27.6955 7.56054 30.1026 6.75815C31.3986 7.80739 32.2627 9.22685 32.633 10.8315C28.6213 15.1518 28.6213 22.9283 32.633 27.2486C32.2627 28.8532 31.3986 30.2728 30.1026 31.322Z" fill="#C97A4D"/>
<path id="Vector_2" d="M31.0894 10.894C31.2129 10.7088 31.2129 10.462 31.1511 10.2768C30.9043 9.65964 30.534 9.04241 30.1019 8.54871C29.9167 8.36356 29.7316 8.30187 29.4847 8.36356C28.6824 8.54871 27.88 8.67217 27.1394 8.67217C22.3254 8.67217 20.5973 4.72224 20.1035 3.05585C20.0419 2.809 19.8567 2.68554 19.6098 2.62385C18.8692 2.50038 18.1285 2.50038 17.3879 2.62385C17.1411 2.68554 16.9559 2.809 16.8942 3.05585C16.3387 4.72224 14.6106 8.67217 9.85829 8.67217C9.11767 8.67217 8.31536 8.54871 7.51298 8.36356C7.26613 8.30187 7.01921 8.36356 6.89582 8.54871C6.46382 9.04248 6.09351 9.65964 5.84659 10.2768C5.72313 10.462 5.78489 10.7088 5.90828 10.894C9.42621 15.5228 9.42621 22.7438 5.90828 27.3727C5.78482 27.5578 5.78482 27.8047 5.84659 27.9899C6.09343 28.6688 6.46374 29.2242 6.95751 29.7797C7.14267 29.9649 7.32782 30.0266 7.57467 29.9649C8.6239 29.718 9.67306 29.5945 10.7223 29.5945C13.6848 29.5945 16.2152 30.582 18.0668 32.4336C18.1902 32.557 18.3136 32.6187 18.4988 32.6187C18.6839 32.6187 18.8074 32.557 18.9308 32.4336C20.7823 30.582 23.3128 29.5945 26.2753 29.5945C27.3245 29.5945 28.3737 29.718 29.4229 29.9649C29.6697 30.0266 29.9167 29.9649 30.04 29.7797C30.5338 29.2242 30.9041 28.6688 31.151 27.9899C31.2744 27.8047 31.2127 27.5578 31.0893 27.3727C27.5715 22.7438 27.5715 15.5228 31.0894 10.894ZM29.9167 27.8048C29.7316 28.1134 29.5464 28.4219 29.3613 28.6688C28.312 28.4837 27.2629 28.3602 26.2753 28.3602C23.1894 28.3602 20.5355 29.3477 18.4989 31.1375C16.4622 29.286 13.8083 28.3602 10.7224 28.3602C9.7349 28.3602 8.68567 28.4837 7.6982 28.6688C7.45135 28.3602 7.2662 28.1134 7.14274 27.8048C10.7224 22.8673 10.7224 15.3377 7.14274 10.4003C7.2662 10.0916 7.45135 9.84479 7.63651 9.59795C8.43882 9.7831 9.17944 9.84479 9.92005 9.84479C15.2895 9.84479 17.3879 5.58624 18.0052 3.7347C18.3755 3.67301 18.6841 3.67301 19.0544 3.7347C19.7333 5.52455 21.77 9.84479 27.1395 9.84479C27.8801 9.84479 28.6207 9.7831 29.423 9.59795C29.6082 9.84479 29.7933 10.0917 29.9168 10.4003C26.3371 15.3377 26.3371 22.8673 29.9167 27.8048Z" fill="#C97A4D"/>
<path id="Vector_3" d="M22.203 14.7812H14.7968C14.4265 14.7812 14.1797 15.0281 14.1797 15.3984C14.1797 15.7687 14.4265 16.0156 14.7968 16.0156H22.203C22.5733 16.0156 22.8202 15.7687 22.8202 15.3984C22.8202 15.0282 22.5733 14.7812 22.203 14.7812Z" fill="#C97A4D"/>
<path id="Vector_4" d="M22.203 17.8672H14.7968C14.4265 17.8672 14.1797 18.114 14.1797 18.4843C14.1797 18.8547 14.4265 19.1015 14.7968 19.1015H22.203C22.5733 19.1015 22.8202 18.8547 22.8202 18.4843C22.8202 18.114 22.5733 17.8672 22.203 17.8672Z" fill="#C97A4D"/>
<path id="Vector_5" d="M22.203 20.9531H14.7968C14.4265 20.9531 14.1797 21.2 14.1797 21.5703C14.1797 21.9406 14.4265 22.1874 14.7968 22.1874H22.203C22.5733 22.1874 22.8202 21.9406 22.8202 21.5703C22.8202 21.2 22.5733 20.9531 22.203 20.9531Z" fill="#C97A4D"/>
<path id="Vector_6" d="M18.5 12.3124C18.8703 12.3124 19.1171 12.0656 19.1171 11.6953C19.1171 11.325 18.8703 11.0781 18.5 11.0781C18.1297 11.0781 17.8828 11.325 17.8828 11.6953C17.8828 12.0656 18.1297 12.3124 18.5 12.3124Z" fill="#C97A4D"/>
<path id="Vector_7" d="M18.5 24.6562C18.1297 24.6562 17.8828 24.9031 17.8828 25.2734C17.8828 25.6437 18.1297 25.8906 18.5 25.8906C18.8703 25.8906 19.1171 25.6437 19.1171 25.2734C19.1171 24.9031 18.8703 24.6562 18.5 24.6562Z" fill="#C97A4D"/>
</g>
</g>
</g>
</g>
<defs>
<clipPath id="clip0_411_4071">
<rect width="37" height="37" fill="white"/>
</clipPath>
</defs>
</svg>
