<svg width="43" height="43" viewBox="0 0 43 43" fill="none" xmlns="http://www.w3.org/2000/svg">
<g id="leather-fashion-svgrepo-com 1" clip-path="url(#clip0_225_692)">
<g id="Group">
<g id="Group_2">
<g id="Group_3">
<path id="Vector" d="M39.2165 13.377C39.4317 13.2336 39.5034 12.9467 39.4317 12.7315V12.6598C38.9296 10.221 37.5667 8.06925 35.5584 6.56299C35.3432 6.41951 35.1281 6.34782 34.8412 6.4913C32.3307 7.35201 30.3224 7.35201 28.7445 6.4196C26.234 4.91334 25.8037 1.32699 25.8037 1.32699C25.8037 1.04011 25.5885 0.824932 25.3016 0.753149C22.8629 -0.25105 20.1373 -0.25105 17.6268 0.753149C17.4117 0.824848 17.1965 1.04003 17.1965 1.32699C17.1965 1.32699 16.7661 4.84156 14.2557 6.4196C12.6777 7.4238 10.5976 7.4238 8.08716 6.4913C7.87198 6.34782 7.6568 6.4196 7.44162 6.56299C5.43331 8.06925 4.07053 10.221 3.56839 12.6597V12.7314C3.56839 12.9466 3.64009 13.2335 3.78357 13.377C5.93536 15.5287 7.15474 18.7564 7.15474 22.1993C7.15474 25.6422 5.93536 28.8699 3.78357 31.0217C3.56839 31.1652 3.49669 31.452 3.56839 31.6672V31.7389C4.07045 34.1776 5.43331 36.3294 7.44162 37.8356C7.6568 37.9791 7.87198 38.0508 8.08716 37.9791C8.51752 37.8356 17.5551 34.7514 20.8544 42.5696C20.9261 42.8565 21.2131 42.9999 21.5 42.9999C21.7869 42.9999 22.0738 42.8565 22.1455 42.4979C25.5167 34.7514 34.5542 37.7639 34.9128 37.9074C35.128 38.0509 35.3432 37.9791 35.5583 37.8357C37.5667 36.3295 38.9295 34.1777 39.4316 31.739V31.6673C39.4316 31.4521 39.3599 31.1652 39.2164 31.0218C34.7694 26.5747 34.7694 17.824 39.2165 13.377ZM34.9846 36.4012C33.1197 35.8992 25.3015 34.106 21.5 40.6331C19.2047 36.7599 15.475 35.8275 12.4624 35.8275C10.4541 35.8275 8.7327 36.2578 8.01538 36.473C6.58082 35.2536 5.50492 33.604 5.07456 31.7391C7.29805 29.3721 8.58913 25.9292 8.58913 22.1995C8.58913 18.4697 7.29805 15.0269 5.07456 12.5881C5.50492 10.7232 6.58082 9.07353 8.01538 7.85416C10.8127 8.78657 13.1797 8.71487 15.0446 7.56728C17.5551 5.98915 18.3441 2.97664 18.5593 1.82905C20.4959 1.18351 22.5042 1.18351 24.4408 1.82905C24.656 2.97664 25.445 5.98915 27.9554 7.56719C29.8203 8.71479 32.1873 8.78657 34.9846 7.85407C36.4908 9.07345 37.495 10.7231 37.9254 12.588C33.2632 17.6088 33.2632 26.6464 37.9254 31.6673C37.495 33.5321 36.4908 35.1819 34.9846 36.4012Z" fill="#494949"/>
<path id="Vector_2" d="M22.4326 35.4689C22.1458 35.7557 21.7871 35.9709 21.5002 36.2579C21.2133 35.971 20.8547 35.6841 20.5678 35.4689C20.2091 35.2537 19.7788 35.3254 19.5636 35.6124C19.3484 35.8992 19.4201 36.4014 19.7071 36.6166C20.2091 36.9034 20.5678 37.2621 20.9982 37.6924C21.1416 37.8359 21.285 37.9076 21.5002 37.9076C21.7154 37.9076 21.8589 37.8359 22.0023 37.6924C22.4326 37.3338 22.863 36.9752 23.2933 36.6166C23.5802 36.4014 23.652 35.8993 23.4368 35.6124C23.2216 35.3254 22.7195 35.2537 22.4326 35.4689Z" fill="#494949"/>
<path id="Vector_3" d="M17.1964 33.7471C16.264 33.3884 15.1881 33.1733 14.1122 33.1016C13.6819 33.1016 13.395 33.3884 13.3232 33.7471C13.2515 34.1775 13.6101 34.4643 13.9687 34.5361C14.9729 34.6078 15.9053 34.823 16.7661 35.11C16.8378 35.11 16.9095 35.11 16.9812 35.11C17.2681 35.11 17.5551 34.8948 17.6268 34.6796C17.7702 34.2492 17.555 33.8906 17.1964 33.7471Z" fill="#494949"/>
<path id="Vector_4" d="M10.3825 33.1014C9.88047 33.1731 9.37833 33.2449 8.94797 33.3166C8.66109 32.9579 8.44591 32.671 8.30243 32.3124C8.58931 31.9537 8.87627 31.5234 9.16315 31.093C9.30663 30.7343 9.23485 30.304 8.87627 30.0888C8.51761 29.9453 8.08725 30.0171 7.87207 30.3757C7.58519 30.8777 7.29823 31.3799 6.93966 31.8102C6.79617 32.0254 6.79617 32.3123 6.86796 32.5275C7.15484 33.3165 7.58519 33.962 8.15903 34.6076C8.23073 34.7511 8.44591 34.8228 8.66109 34.8228C8.66109 34.8228 8.73279 34.8228 8.80457 34.8228C9.37841 34.6793 9.95217 34.6076 10.526 34.5359C10.9564 34.4642 11.2432 34.1055 11.1715 33.7469C11.0998 33.3166 10.8129 33.0297 10.3825 33.1014Z" fill="#494949"/>
<path id="Vector_5" d="M10.6693 17.0346C10.5976 16.6043 10.1672 16.3891 9.80854 16.5326C9.37818 16.6043 9.163 17.0346 9.30648 17.3933C9.59336 18.3257 9.73684 19.3299 9.88032 20.3341C9.95202 20.6927 10.239 20.9796 10.5976 20.9796C10.5976 20.9796 10.6693 20.9796 10.6693 21.0513C11.0996 20.9796 11.3865 20.621 11.3148 20.2623C11.1714 19.1864 10.9562 18.1105 10.6693 17.0346Z" fill="#494949"/>
<path id="Vector_6" d="M10.5978 23.4184C10.1674 23.3467 9.88055 23.7053 9.80877 24.0639C9.73707 25.1398 9.52189 26.144 9.23492 27.0765C9.16323 27.4351 9.37841 27.7937 9.73698 27.9372C9.80868 27.9372 9.88046 27.9372 9.95216 27.9372C10.3108 27.9372 10.5977 27.722 10.5977 27.4351C10.8846 26.4309 11.0998 25.2833 11.2432 24.2074C11.2433 23.7771 10.9564 23.4902 10.5978 23.4184Z" fill="#494949"/>
<path id="Vector_7" d="M9.09117 13.3051C8.87599 12.8747 8.58911 12.4443 8.30215 12.0857C8.44563 11.727 8.66081 11.4401 8.87599 11.1533C9.37804 11.225 9.88018 11.2967 10.3105 11.3684C10.6692 11.3684 11.0278 11.0816 11.0996 10.7229C11.0996 10.3642 10.8127 10.0057 10.3823 9.93388C9.88027 9.86218 9.30643 9.7904 8.73259 9.647C8.44571 9.5753 8.15875 9.647 8.01535 9.86218C7.51329 10.436 7.08294 11.1533 6.79597 11.8705C6.65249 12.0857 6.72428 12.3726 6.86767 12.5877C7.22633 13.0181 7.51321 13.5201 7.80009 14.0223C7.94357 14.2375 8.23045 14.381 8.44563 14.381C8.58911 14.381 8.73251 14.381 8.80429 14.3093C9.16286 14.0941 9.30635 13.6637 9.09117 13.3051Z" fill="#494949"/>
<path id="Vector_8" d="M16.7659 8.06936C15.9769 8.7149 15.1161 9.28874 14.112 9.57562C13.7534 9.7191 13.5382 10.1495 13.6817 10.508C13.8251 10.7949 14.112 11.0101 14.3989 11.0101C14.4706 11.0101 14.5424 11.0101 14.5424 11.0101C15.69 10.5797 16.7659 10.0059 17.6984 9.14517C17.9853 8.8583 18.057 8.42794 17.7701 8.14098C17.4831 7.85418 17.0528 7.78248 16.7659 8.06936Z" fill="#494949"/>
<path id="Vector_9" d="M23.2933 3.47881C23.2216 3.19193 23.0064 3.04845 22.7195 2.97675C21.9304 2.83327 21.0697 2.83327 20.209 2.97675C19.9221 3.04845 19.707 3.19193 19.6352 3.47881C19.4917 4.05265 19.2765 4.55471 19.0613 5.05676C18.9178 5.41542 19.0613 5.84578 19.42 5.98918C19.4917 6.06088 19.6352 6.06088 19.7069 6.06088C19.9937 6.06088 20.2089 5.9174 20.2089 5.63052C20.4241 5.20016 20.6393 4.6981 20.7828 4.26774C21.2131 4.19605 21.5718 4.19605 22.0021 4.26774C22.2173 4.7698 22.3608 5.20016 22.576 5.63052C22.7195 5.98918 23.1498 6.13258 23.5084 5.98918C23.867 5.84578 24.0105 5.41534 23.8671 5.05676C23.652 4.55471 23.4368 4.05256 23.2933 3.47881Z" fill="#494949"/>
<path id="Vector_10" d="M28.6011 11.0101C28.888 11.0101 29.175 10.795 29.2467 10.5081C29.3902 10.0777 29.175 9.71905 28.8163 9.57566C27.8121 9.28878 26.9514 8.78664 26.1625 8.0694C25.8756 7.85422 25.4452 7.85422 25.1583 8.1411C24.9431 8.42798 24.9431 8.85834 25.23 9.1453C26.1624 10.006 27.2383 10.6516 28.386 11.0102C28.4577 11.0101 28.5294 11.0101 28.6011 11.0101Z" fill="#494949"/>
<path id="Vector_11" d="M32.6896 11.3684C33.1917 11.3684 33.6221 11.225 34.1242 11.1533C34.3394 11.4401 34.5546 11.7271 34.698 12.0857C34.4112 12.4443 34.1242 12.8747 33.909 13.3051C33.7655 13.6637 33.8373 14.0941 34.1959 14.3093C34.3394 14.381 34.4111 14.381 34.5546 14.381C34.7697 14.381 34.9849 14.2375 35.1284 14.0223C35.4153 13.5202 35.7022 13.0181 36.0608 12.5877C36.2043 12.3726 36.2043 12.0857 36.1325 11.8705C35.8456 11.1533 35.4153 10.4359 34.9131 9.86218C34.698 9.647 34.4828 9.5753 34.1959 9.647C33.6221 9.79048 33.12 9.86218 32.5462 9.93388C32.1158 10.0056 31.8289 10.3642 31.9006 10.7229C31.9723 11.1533 32.2593 11.4402 32.6896 11.3684Z" fill="#494949"/>
<path id="Vector_12" d="M32.3306 20.9798H32.4023C32.761 20.9798 33.0478 20.7646 33.1195 20.3342C33.1912 19.2583 33.4064 18.2541 33.6934 17.3217C33.7651 16.9631 33.5499 16.5327 33.1913 16.461C32.8327 16.3893 32.4741 16.6045 32.3306 16.9631C32.0437 17.9673 31.8285 19.1149 31.6851 20.1907C31.6851 20.5494 31.9719 20.9081 32.3306 20.9798Z" fill="#494949"/>
<path id="Vector_13" d="M33.0482 27.9379C33.1199 27.9379 33.1916 27.9379 33.1916 27.9379C33.622 27.8662 33.8372 27.4359 33.6937 27.0772C33.4068 26.073 33.2633 25.0689 33.1199 24.0647C33.0482 23.6344 32.7612 23.3475 32.3308 23.4192C31.9005 23.4909 31.6136 23.8495 31.6853 24.2082C31.8288 25.2841 32.044 26.36 32.3308 27.4359C32.4744 27.7228 32.7613 27.9379 33.0482 27.9379Z" fill="#494949"/>
<path id="Vector_14" d="M33.9087 31.0935C34.1239 31.5239 34.4108 31.9542 34.6977 32.3129C34.4825 32.6715 34.2674 33.0301 34.0522 33.3171C33.5501 33.2454 33.1198 33.1736 32.6176 33.1019C32.1873 33.1019 31.9004 33.3888 31.8286 33.7474C31.8286 34.1061 32.1155 34.4647 32.4742 34.5365C33.048 34.6082 33.6217 34.6799 34.1956 34.8233C34.2673 34.8233 34.2673 34.8233 34.3391 34.8233C34.5542 34.8233 34.7694 34.7516 34.9129 34.6082C35.4867 33.9626 35.9171 33.3171 36.204 32.5281C36.3475 32.3129 36.2757 32.026 36.1323 31.8108C35.7736 31.3805 35.4867 30.8784 35.1999 30.3763C34.9847 30.0176 34.5543 29.8742 34.1957 30.0894C33.837 30.3046 33.6935 30.7349 33.9087 31.0935Z" fill="#494949"/>
<path id="Vector_15" d="M28.8876 33.0303C27.8117 33.1738 26.8075 33.3889 25.8034 33.6758C25.4448 33.8193 25.2296 34.2497 25.3731 34.6082C25.5166 34.8951 25.8034 35.1103 26.0903 35.1103C26.162 35.1103 26.2338 35.0386 26.2338 35.0386C27.0945 34.7517 28.0269 34.5365 29.0311 34.4647C29.4615 34.393 29.7484 34.0344 29.6767 33.6757C29.6049 33.2455 29.318 33.0303 28.8876 33.0303Z" fill="#494949"/>
</g>
</g>
</g>
</g>
<defs>
<clipPath id="clip0_225_692">
<rect width="43" height="43" fill="white"/>
</clipPath>
</defs>
</svg>
