<svg width="43" height="43" viewBox="0 0 43 43" fill="none" xmlns="http://www.w3.org/2000/svg">
<g id="sewing-fashion-svgrepo-com 1" clip-path="url(#clip0_225_711)">
<g id="Group">
<g id="Group_2">
<path id="Vector" d="M42.7814 11.0986C42.49 10.8072 42.0527 10.8072 41.7613 11.0986C39.2458 13.4782 37.1743 13.7634 35.0142 11.897L35.7136 11.3172C37.6081 9.34979 37.6081 6.21665 35.7136 4.32224C33.8191 2.42774 30.6859 2.42774 28.7186 4.39512L28.1579 5.07313L27.407 4.32224C25.4397 2.42774 22.3065 2.42774 20.4121 4.32224C19.4649 5.26944 18.9548 6.50818 18.9548 7.8197C18.9548 9.13123 19.4649 10.37 20.4121 11.3172L21.8513 12.6989L11.5677 25.1336L9.1181 22.6841C7.1508 20.7896 4.01758 20.7896 2.12317 22.6841C1.17588 23.6313 0.665791 24.87 0.665791 26.1815C0.665791 27.4931 1.17588 28.7318 2.12308 29.679L5.24581 32.7779L0.15579 38.9327C-0.0627704 39.2242 -0.0627704 39.5885 0.228671 39.8799C0.374434 40.0257 0.520112 40.0985 0.738757 40.0985C0.884519 40.0985 1.10308 40.0256 1.17596 39.9527L7.33242 34.8484L11.6684 39.1513C11.8142 39.2971 11.9599 39.3699 12.1785 39.3699C12.3243 39.3699 12.5429 39.297 12.6886 39.2241C12.9801 38.9327 12.9801 38.4955 12.6886 38.204L8.42614 33.9415L17.626 26.3138L19.8292 28.5859C20.7764 29.5331 22.0152 29.9703 23.181 29.9703C24.5654 29.9703 25.877 29.3874 26.8971 28.5859C28.7916 26.6185 28.7916 23.4853 26.8971 21.5909L25.2405 20.0005L33.8915 12.8279C35.1664 13.9869 36.4965 14.596 37.8268 14.596C39.4298 14.596 41.1057 13.7945 42.7816 12.1186C43.0728 11.8273 43.0728 11.3901 42.7814 11.0986ZM21.4321 10.2971C20.7763 9.64132 20.412 8.76691 20.412 7.8197C20.412 6.8725 20.7763 5.99809 21.4321 5.34233C22.8165 3.95792 25.0025 3.95792 26.3869 5.34233L27.2343 6.18978L22.773 11.5843L21.4321 10.2971ZM3.14317 28.6589C2.48741 28.0031 2.12308 27.1287 2.12308 26.1815C2.12308 25.2343 2.48741 24.3599 3.14317 23.7041C4.52758 22.3197 6.71352 22.3197 8.09793 23.7041L10.6442 26.2504L6.15851 31.6743L3.14317 28.6589ZM6.20352 33.9051L6.28387 33.808L6.30066 33.8246L6.20352 33.9051ZM7.1927 32.7084L28.2618 7.21726L30.0665 9.022L29.3743 9.7142C29.0829 10.0056 29.0829 10.4428 29.3743 10.7343C29.5201 10.8801 29.6658 10.9528 29.8844 10.9528C30.1031 10.9528 30.2487 10.88 30.3945 10.7343L32.799 8.32979C33.0904 8.03835 33.0904 7.60114 32.799 7.3097C32.5076 7.01826 32.0704 7.01826 31.7789 7.3097L31.0867 8.00191L29.1851 6.10028L29.8115 5.34233C30.4673 4.68656 31.3417 4.32224 32.2889 4.32224C33.2361 4.32224 34.0376 4.68656 34.6934 5.34233C35.3492 5.99809 35.7135 6.8725 35.7135 7.8197C35.7135 8.76691 35.3492 9.64132 34.7663 10.2242L7.39858 32.9143L7.1927 32.7084ZM25.8769 22.6841C27.1884 24.0685 27.1884 26.2544 25.8769 27.5659C24.5653 28.6589 22.3065 28.9503 20.9221 27.5659L18.7435 25.3873L24.1213 20.9284L25.8769 22.6841Z" fill="#494949"/>
</g>
</g>
</g>
<defs>
<clipPath id="clip0_225_711">
<rect width="43" height="43" fill="white"/>
</clipPath>
</defs>
</svg>
