<svg width="37" height="37" viewBox="0 0 37 37" fill="none" xmlns="http://www.w3.org/2000/svg">
<path d="M22.4142 24.2441H8.3667V25.5874H22.4142V24.2441Z" fill="#494949"/>
<path d="M22.4142 18.8037H8.3667V20.1426H22.4142V18.8037Z" fill="#494949"/>
<path d="M22.4142 13.3594H8.3667V14.7026H22.4142V13.3594Z" fill="#494949"/>
<path d="M22.414 7.91895H15.7959V9.26222H22.414V7.91895Z" fill="#494949"/>
<path d="M27.8305 28.6308V2.86273C27.8305 2.69695 27.8163 2.53009 27.7877 2.37364C27.555 1.02545 26.3775 0 24.9634 0H13.3466C12.5111 0 11.7135 0.332639 11.1251 0.92117L3.87625 8.165C3.28721 8.75903 2.95508 9.55604 2.95508 10.3921V28.6308C2.95508 30.2063 4.24184 31.493 5.82279 31.493H24.9634C26.5439 31.493 27.8305 30.2063 27.8305 28.6308ZM12.3311 1.9894V8.42639C12.3311 9.12462 12.0605 9.39468 11.3672 9.39468H4.93024L12.3311 1.9894ZM4.56465 28.6308V10.8236H12.2263C12.4782 10.8236 12.7153 10.7622 12.924 10.6529C13.2187 10.5058 13.4559 10.2682 13.5981 9.9788C13.7078 9.76966 13.7644 9.53689 13.7644 9.2904V1.6095H24.9634C25.4806 1.6095 25.9268 1.92241 26.1167 2.37364C26.1832 2.52568 26.2162 2.68705 26.2162 2.86273V28.6308C26.2162 29.3186 25.6562 29.884 24.9634 29.884H5.82287C5.12955 29.884 4.56465 29.3186 4.56465 28.6308Z" fill="#494949"/>
<path d="M31.1821 5.50684H29.2503L29.3497 7.11634H31.182C31.8753 7.11634 32.4358 7.67625 32.4358 8.36957V34.1375C32.4358 34.8254 31.8753 35.3908 31.182 35.3908H12.037C11.5194 35.3908 11.0731 35.0724 10.8831 34.6261C10.8217 34.4746 10.7838 34.3132 10.7838 34.1375V33.0173H9.17432V34.1376C9.17432 34.3034 9.18863 34.4692 9.21717 34.6262C9.44987 35.9695 10.6274 36.9998 12.0371 36.9998H31.1822C32.7631 36.9998 34.0455 35.7131 34.0455 34.1376V8.36964C34.0454 6.78868 32.763 5.50684 31.1821 5.50684Z" fill="#494949"/>
</svg>
