<svg width="43" height="43" viewBox="0 0 43 43" fill="none" xmlns="http://www.w3.org/2000/svg">
<g id="Credit cards" clip-path="url(#clip0_206_734)">
<path id="Vector" fill-rule="evenodd" clip-rule="evenodd" d="M4.58681 22.0895H38.4128C39.4318 22.0895 40.2578 22.9155 40.2578 23.9345V39.925C40.2578 40.9439 39.4318 41.77 38.4128 41.77H4.58681C3.56782 41.77 2.74176 40.9439 2.74176 39.925V23.9345C2.74176 22.9155 3.56782 22.0895 4.58681 22.0895ZM38.4128 20.8594C40.1111 20.8594 41.4879 22.2362 41.4879 23.9345V39.925C41.4879 41.6233 40.1111 43 38.4128 43H4.58681C2.88848 43 1.51172 41.6233 1.51172 39.925V23.9345C1.51172 22.2362 2.88848 20.8594 4.58681 20.8594H38.4128Z" fill="#494949"/>
<path id="Vector_2" fill-rule="evenodd" clip-rule="evenodd" d="M4.58681 22.0895H38.4128C39.4318 22.0895 40.2578 22.9155 40.2578 23.9345V24.5495H2.74176V23.9345C2.74176 22.9155 3.56782 22.0895 4.58681 22.0895ZM38.4128 20.8594C40.1111 20.8594 41.4879 22.2362 41.4879 23.9345V25.1645C41.4879 25.5042 41.2125 25.7796 40.8729 25.7796H2.12674C1.78708 25.7796 1.51172 25.5042 1.51172 25.1645V23.9345C1.51172 22.2362 2.88848 20.8594 4.58681 20.8594H38.4128Z" fill="#494949"/>
<path id="Vector_3" fill-rule="evenodd" clip-rule="evenodd" d="M31.6301 1.32153L9.26002 14.2368C8.96586 14.4067 8.86507 14.7828 9.0349 15.077L13.0836 22.0894H11.6632L7.96966 15.692C7.46017 14.8095 7.76252 13.6811 8.645 13.1716L31.0151 0.256287C31.8976 -0.253209 33.026 0.049148 33.5355 0.931623L40.6082 13.1819C41.1177 14.0643 40.8153 15.1927 39.9329 15.7022L28.8701 22.0894H26.41L39.3178 14.637C39.612 14.4672 39.7128 14.091 39.543 13.7969L32.4703 1.54664C32.3004 1.25248 31.9243 1.15169 31.6301 1.32153ZM13.0836 24.5494H14.5039L15.214 25.7795H13.7937L13.0836 24.5494ZM22.4786 25.7795L24.6091 24.5494H22.149L20.0185 25.7795H22.4786Z" fill="#494949"/>
<path id="Vector_4" d="M8.92139 16.9148L34.1186 2.36719L36.2742 6.10083L11.077 20.6484L8.92139 16.9148Z" fill="#494949"/>
<path id="Vector_5" fill-rule="evenodd" clip-rule="evenodd" d="M33.6683 4.04745L10.6017 17.365L11.5273 18.9682L34.5939 5.65061L33.6683 4.04745ZM8.92139 16.9148L11.077 20.6484L36.2742 6.10083L34.1186 2.36719L8.92139 16.9148Z" fill="#494949"/>
<path id="Vector_6" d="M6.43213 28.7393C6.43213 28.4632 6.70748 28.2393 7.04715 28.2393H35.953C36.2926 28.2393 36.568 28.4632 36.568 28.7393C36.568 29.0155 36.2926 29.2393 35.953 29.2393H7.04715C6.70748 29.2393 6.43213 29.0155 6.43213 28.7393Z" fill="#494949"/>
</g>
<defs>
<clipPath id="clip0_206_734">
<rect width="43" height="43" fill="white"/>
</clipPath>
</defs>
</svg>
