<svg width="36" height="40" viewBox="0 0 36 40" fill="none" xmlns="http://www.w3.org/2000/svg">
<g id="Group 1574">
<path id="Vector" d="M2.40019 35.635C4.63946 38.3332 8.80715 38.3332 17.1424 38.3332H18.4886C26.824 38.3332 30.9918 38.3332 33.2311 35.635M2.40019 35.635C0.160922 32.9369 0.928974 28.8405 2.46508 20.648C3.55748 14.8218 4.1037 11.9088 6.17734 10.1878M33.2311 35.635C35.4703 32.9369 34.7022 28.8405 33.1661 20.648C32.0738 14.8218 31.5276 11.9088 29.4539 10.1878M29.4539 10.1878C27.3803 8.4668 24.4164 8.4668 18.4886 8.4668H17.1424C11.2148 8.4668 8.251 8.4668 6.17734 10.1878" stroke="#C97A4D" stroke-width="2"/>
<g id="Vector_2">
<mask id="path-2-inside-1_413_3852" fill="white">
<path d="M17.8163 20.0242L16.8481 21.0356C17.3894 21.5539 18.2432 21.5539 18.7846 21.0356L17.8163 20.0242ZM16.8578 25.7541C16.0777 25.1816 15.2182 24.4667 14.5674 23.7142C13.88 22.9194 13.6164 22.3015 13.6164 21.901H10.8164C10.8164 23.3381 11.64 24.6098 12.4495 25.5458C13.2957 26.5243 14.3427 27.3814 15.2015 28.0116L16.8578 25.7541ZM13.6164 21.901C13.6164 20.8258 14.1066 20.3578 14.5346 20.2077C15.0018 20.044 15.8672 20.0963 16.8481 21.0356L18.7846 19.0131C17.2457 17.5397 15.3111 16.9685 13.6083 17.5655C11.8663 18.1761 10.8164 19.8529 10.8164 21.901H13.6164ZM20.4311 28.0116C21.29 27.3814 22.337 26.5243 23.1832 25.5458C23.9927 24.6098 24.8163 23.3381 24.8163 21.901H22.0163C22.0163 22.3015 21.7527 22.9194 21.0653 23.7142C20.4145 24.4669 19.5549 25.1816 18.7749 25.7541L20.4311 28.0116ZM24.8163 21.901C24.8163 19.8529 23.7663 18.1761 22.0243 17.5655C20.3216 16.9685 18.387 17.5397 16.8481 19.0131L18.7846 21.0356C19.7655 20.0963 20.6309 20.044 21.0981 20.2077C21.5261 20.3578 22.0163 20.8258 22.0163 21.901H24.8163ZM15.2015 28.0116C15.8896 28.5164 16.662 29.1451 17.8163 29.1452V26.3453C17.7708 26.3453 17.7426 26.3451 17.6411 26.2915C17.4807 26.2068 17.2802 26.064 16.8578 25.7541L15.2015 28.0116ZM18.7749 25.7541C18.3524 26.064 18.152 26.2068 17.9916 26.2915C17.8901 26.3451 17.8619 26.3453 17.8163 26.3453V29.1452C18.9707 29.1452 19.7431 28.5164 20.4311 28.0116L18.7749 25.7541Z"/>
</mask>
<path d="M17.8163 20.0242L16.8481 21.0356C17.3894 21.5539 18.2432 21.5539 18.7846 21.0356L17.8163 20.0242ZM16.8578 25.7541C16.0777 25.1816 15.2182 24.4667 14.5674 23.7142C13.88 22.9194 13.6164 22.3015 13.6164 21.901H10.8164C10.8164 23.3381 11.64 24.6098 12.4495 25.5458C13.2957 26.5243 14.3427 27.3814 15.2015 28.0116L16.8578 25.7541ZM13.6164 21.901C13.6164 20.8258 14.1066 20.3578 14.5346 20.2077C15.0018 20.044 15.8672 20.0963 16.8481 21.0356L18.7846 19.0131C17.2457 17.5397 15.3111 16.9685 13.6083 17.5655C11.8663 18.1761 10.8164 19.8529 10.8164 21.901H13.6164ZM20.4311 28.0116C21.29 27.3814 22.337 26.5243 23.1832 25.5458C23.9927 24.6098 24.8163 23.3381 24.8163 21.901H22.0163C22.0163 22.3015 21.7527 22.9194 21.0653 23.7142C20.4145 24.4669 19.5549 25.1816 18.7749 25.7541L20.4311 28.0116ZM24.8163 21.901C24.8163 19.8529 23.7663 18.1761 22.0243 17.5655C20.3216 16.9685 18.387 17.5397 16.8481 19.0131L18.7846 21.0356C19.7655 20.0963 20.6309 20.044 21.0981 20.2077C21.5261 20.3578 22.0163 20.8258 22.0163 21.901H24.8163ZM15.2015 28.0116C15.8896 28.5164 16.662 29.1451 17.8163 29.1452V26.3453C17.7708 26.3453 17.7426 26.3451 17.6411 26.2915C17.4807 26.2068 17.2802 26.064 16.8578 25.7541L15.2015 28.0116ZM18.7749 25.7541C18.3524 26.064 18.152 26.2068 17.9916 26.2915C17.8901 26.3451 17.8619 26.3453 17.8163 26.3453V29.1452C18.9707 29.1452 19.7431 28.5164 20.4311 28.0116L18.7749 25.7541Z" fill="#1C274C"/>
<path d="M15.2015 28.0116L14.3953 27.4201L16.0078 28.6032L15.2015 28.0116ZM18.7749 25.7541L19.5811 25.1626L17.9686 26.3456L18.7749 25.7541ZM15.2235 26.2913L14.3953 27.42L16.0078 28.6032L16.836 27.4744L15.2235 26.2913ZM20.4092 26.2914L19.5812 25.1626L17.9686 26.3456L18.7966 27.4744L20.4092 26.2914ZM16.8163 27.7452V29.1452H18.8163V27.7452H16.8163ZM13.6164 20.901H10.8164V22.901H13.6164V20.901ZM16.0078 28.6032L17.6641 26.3456L16.0515 25.1626L14.3953 27.4201L16.0078 28.6032ZM24.8163 20.901H22.0163V22.901H24.8163V20.901ZM17.9686 26.3456L19.6249 28.6032L21.2374 27.4201L19.5811 25.1626L17.9686 26.3456ZM18.8163 29.1452V26.3453H16.8163V29.1452H18.8163ZM17.8163 20.0242L19.261 18.6411L17.8163 17.1321L16.3717 18.6411L17.8163 20.0242ZM15.2015 28.0116L14.0184 29.6241L14.0185 29.6242L15.2015 28.0116ZM18.7749 25.7541L19.9578 27.3667L19.9582 27.3665L18.7749 25.7541ZM17.8163 29.1452L17.816 31.1452H17.8163V29.1452ZM16.8578 25.7541L15.6745 27.3665L15.6749 27.3667L16.8578 25.7541ZM14.5674 23.7142L16.0802 22.406L16.0801 22.4059L14.5674 23.7142ZM12.4495 25.5458L13.9624 24.2376L13.9622 24.2374L12.4495 25.5458ZM14.5346 20.2077L13.8732 18.3202L13.8728 18.3204L14.5346 20.2077ZM18.7846 19.0131L20.2292 20.3962L21.6124 18.9516L20.1677 17.5684L18.7846 19.0131ZM13.6083 17.5655L14.2698 19.4529L14.2699 19.4529L13.6083 17.5655ZM20.4311 28.0116L21.6141 29.6242L21.6143 29.6241L20.4311 28.0116ZM23.1832 25.5458L21.6705 24.2374L21.6703 24.2376L23.1832 25.5458ZM21.0653 23.7142L19.5526 22.4058L19.5523 22.4062L21.0653 23.7142ZM22.0243 17.5655L21.3627 19.4528L21.3628 19.4529L22.0243 17.5655ZM16.8481 19.0131L15.465 17.5684L14.0203 18.9516L15.4035 20.3962L16.8481 19.0131ZM21.0981 20.2077L21.7599 18.3204L21.7594 18.3202L21.0981 20.2077ZM17.6411 26.2915L16.7065 28.0597L16.7078 28.0604L17.6411 26.2915ZM17.9916 26.2915L18.9249 28.0604L18.9262 28.0597L17.9916 26.2915ZM16.3717 18.6411L15.4034 19.6525L18.2928 22.4187L19.261 21.4073L16.3717 18.6411ZM15.4649 22.4801C16.7796 23.7391 18.853 23.7391 20.1678 22.4801L17.4013 19.5911C17.6335 19.3688 17.9992 19.3688 18.2314 19.5911L15.4649 22.4801ZM20.2293 19.6525L19.261 18.6411L16.3717 21.4073L17.3399 22.4187L20.2293 19.6525ZM18.0411 24.1417C17.3169 23.6102 16.5913 22.997 16.0802 22.406L13.0547 25.0225C13.845 25.9364 14.8386 26.753 15.6745 27.3665L18.0411 24.1417ZM16.0801 22.4059C15.8162 22.1007 15.6829 21.8853 15.6232 21.7658C15.5943 21.7079 15.5901 21.6873 15.5943 21.7024C15.5981 21.7159 15.6164 21.7855 15.6164 21.901H11.6164C11.6164 23.0418 12.2799 24.1267 13.0547 25.0226L16.0801 22.4059ZM8.81641 21.901C8.81641 24.0785 10.04 25.8172 10.9369 26.8542L13.9622 24.2374C13.24 23.4024 12.8164 22.5977 12.8164 21.901H8.81641ZM10.9367 26.854C11.9224 27.9938 13.1033 28.9527 14.0184 29.6241L16.3847 26.3991C15.5821 25.8102 14.669 25.0547 13.9624 24.2376L10.9367 26.854ZM15.6164 21.901C15.6164 21.669 15.667 21.6821 15.5906 21.7994C15.5123 21.9194 15.3751 22.0324 15.1964 22.0951L13.8728 18.3204C12.5255 18.7928 11.6164 20.1081 11.6164 21.901H15.6164ZM15.1959 22.0952C15.013 22.1593 14.9272 22.125 14.9651 22.1355C14.9953 22.1439 15.1742 22.2018 15.4649 22.4801L18.2313 19.591C16.8407 18.2594 15.2108 17.8516 13.8732 18.3202L15.1959 22.0952ZM18.2927 22.4187L20.2292 20.3962L17.34 17.6299L15.4035 19.6524L18.2927 22.4187ZM20.1677 17.5684C18.2355 15.7185 15.5374 14.7698 12.9466 15.6781L14.2699 19.4529C15.0848 19.1672 16.2559 19.3609 17.4015 20.4577L20.1677 17.5684ZM12.9467 15.6781C10.2593 16.62 8.81641 19.1663 8.81641 21.901H12.8164C12.8164 20.5394 13.4733 19.7321 14.2698 19.4529L12.9467 15.6781ZM21.6143 29.6241C22.5294 28.9527 23.7103 27.9938 24.696 26.854L21.6703 24.2376C20.9637 25.0547 20.0506 25.8102 19.248 26.3991L21.6143 29.6241ZM24.6958 26.8542C25.5927 25.8172 26.8163 24.0785 26.8163 21.901H22.8163C22.8163 22.5977 22.3927 23.4024 21.6705 24.2374L24.6958 26.8542ZM20.0163 21.901C20.0163 21.7856 20.0346 21.716 20.0384 21.7025C20.0426 21.6873 20.0384 21.708 20.0095 21.7659C19.9498 21.8853 19.8165 22.1007 19.5526 22.4058L22.5779 25.0226C23.3529 24.1267 24.0163 23.0418 24.0163 21.901H20.0163ZM19.5523 22.4062C19.0414 22.9971 18.316 23.61 17.5915 24.1417L19.9582 27.3665C20.7939 26.7531 21.7877 25.9366 22.5782 25.0223L19.5523 22.4062ZM26.8163 21.901C26.8163 19.1662 25.3732 16.62 22.6859 15.6781L21.3628 19.4529C22.1594 19.7321 22.8163 20.5395 22.8163 21.901H26.8163ZM22.686 15.6781C20.0953 14.7698 17.3972 15.7185 15.465 17.5684L18.2312 20.4577C19.3768 19.3609 20.5479 19.1672 21.3627 19.4528L22.686 15.6781ZM15.4035 20.3962L17.34 22.4187L20.2292 19.6524L18.2927 17.6299L15.4035 20.3962ZM20.1678 22.4801C20.4585 22.2018 20.6374 22.1439 20.6676 22.1355C20.7055 22.125 20.6197 22.1593 20.4368 22.0952L21.7594 18.3202C20.4219 17.8516 18.792 18.2594 17.4013 19.591L20.1678 22.4801ZM20.4363 22.0951C20.2576 22.0324 20.1204 21.9194 20.0421 21.7994C19.9657 21.6821 20.0163 21.669 20.0163 21.901H24.0163C24.0163 20.1081 23.1072 18.7928 21.7599 18.3204L20.4363 22.0951ZM14.0185 29.6242C14.5902 30.0436 15.8943 31.1449 17.816 31.1452L17.8167 27.1452C17.4297 27.1452 17.189 26.9892 16.3845 26.399L14.0185 29.6242ZM17.8163 24.3453C17.7937 24.3453 17.8623 24.3442 17.9442 24.3508C18.0446 24.3589 18.152 24.376 18.2622 24.4053C18.3646 24.4324 18.4435 24.4631 18.4922 24.484C18.5392 24.5041 18.5691 24.5198 18.5743 24.5226L16.7078 28.0604C16.8047 28.1115 16.9939 28.2072 17.2372 28.2717C17.5339 28.3503 17.7785 28.3453 17.8163 28.3453V24.3453ZM18.5756 24.5233C18.5977 24.5349 18.5822 24.5292 18.4852 24.4622C18.3886 24.3953 18.2544 24.2981 18.0408 24.1414L15.6749 27.3667C16.048 27.6404 16.3855 27.8901 16.7065 28.0597L18.5756 24.5233ZM17.5919 24.1414C17.3783 24.2981 17.2441 24.3953 17.1475 24.4622C17.0505 24.5292 17.035 24.5349 17.0571 24.5233L18.9262 28.0597C19.2472 27.8901 19.5847 27.6404 19.9578 27.3667L17.5919 24.1414ZM17.0584 24.5226C17.0636 24.5198 17.0935 24.5041 17.1405 24.484C17.1892 24.4631 17.2681 24.4324 17.3704 24.4053C17.4807 24.376 17.5881 24.3589 17.6885 24.3508C17.7704 24.3442 17.839 24.3453 17.8163 24.3453V28.3453C17.8541 28.3453 18.0988 28.3503 18.3955 28.2717C18.6388 28.2072 18.828 28.1115 18.9249 28.0604L17.0584 24.5226ZM17.8163 31.1452C19.7384 31.1452 21.0428 30.0433 21.6141 29.6242L19.2482 26.399C18.4434 26.9894 18.203 27.1452 17.8163 27.1452V31.1452Z" fill="#C97A4D" mask="url(#path-2-inside-1_413_3852)"/>
</g>
<path id="Vector_3" d="M12.2148 8.4666V6.59995C12.2148 3.50719 14.7219 1 17.8148 1C20.9076 1 23.4147 3.50719 23.4147 6.59995V8.4666" stroke="#C97A4D" stroke-width="2" stroke-linecap="round"/>
</g>
</svg>
