<svg width="41" height="39" viewBox="0 0 41 39" fill="none" xmlns="http://www.w3.org/2000/svg">
<g id="Group 1575">
<path id="Vector" d="M0 1H40.3478" stroke="#C97A4D" stroke-width="2" stroke-miterlimit="10"/>
<path id="Vector_2" d="M8.40434 38.0001C12.1215 38.0001 15.1348 34.9867 15.1348 31.2696C15.1348 27.5524 12.1215 24.5391 8.40434 24.5391C4.68718 24.5391 1.67383 27.5524 1.67383 31.2696C1.67383 34.9867 4.68718 38.0001 8.40434 38.0001Z" stroke="#C97A4D" stroke-width="2" stroke-miterlimit="10"/>
<path id="Vector_3" d="M31.9434 38.0001C35.6606 38.0001 38.6739 34.9867 38.6739 31.2696C38.6739 27.5524 35.6606 24.5391 31.9434 24.5391C28.2262 24.5391 25.2129 27.5524 25.2129 31.2696C25.2129 34.9867 28.2262 38.0001 31.9434 38.0001Z" stroke="#C97A4D" stroke-width="2" stroke-miterlimit="10"/>
<path id="Vector_4" d="M8.4043 1V27.9044" stroke="#C97A4D" stroke-width="2" stroke-miterlimit="10"/>
<path id="Vector_5" d="M31.9434 1V27.9044" stroke="#C97A4D" stroke-width="2" stroke-miterlimit="10"/>
</g>
</svg>
