<svg width="0" height="0" class="hidden">
  <symbol xmlns="http://www.w3.org/2000/svg" viewBox="0 0 13 13" id="ic_arr_hor">
    <path d="M3.13686 0.158847C2.92508 0.370625 2.92508 0.71296 3.13686 0.924739L8.71212 6.50002L3.13686 12.0753C2.92508 12.2871 2.92508 12.6294 3.13686 12.8412C3.34864 13.0529 3.69097 13.0529 3.90275 12.8412L9.86097 6.88295C9.96659 6.77733 10.0197 6.63867 10.0197 6.49999C10.0197 6.36131 9.96659 6.22266 9.86097 6.11704L3.90275 0.158821C3.69097 -0.0529328 3.34864 -0.0529318 3.13686 0.158847Z" fill="currentColor"></path>
  </symbol>
  <symbol xmlns="http://www.w3.org/2000/svg" viewBox="0 0 17 17" id="ic_arr_ver">
    <path d="M8.1611 12.8513L0.141615 4.83184C-0.0472049 4.64302 -0.0472049 4.3402 0.141615 4.15138C0.330434 3.96256 0.633258 3.96256 0.822078 4.15138L8.49955 11.8289L16.177 4.15138C16.3659 3.96256 16.6687 3.96256 16.8575 4.15138C16.9501 4.24401 17 4.3687 17 4.48983C17 4.61096 16.9537 4.73565 16.8575 4.82828L8.838 12.8478C8.65275 13.0366 8.34636 13.0366 8.1611 12.8513Z" fill="currentColor"></path>
  </symbol>
  <symbol fill="none" xmlns="http://www.w3.org/2000/svg" viewBox="0 0 17 8" id="ic_arrow_hor">
    <path d="M0.646446 3.64645C0.451185 3.84171 0.451185 4.15829 0.646446 4.35355L3.82843 7.53553C4.02369 7.73079 4.34027 7.73079 4.53553 7.53553C4.7308 7.34027 4.7308 7.02369 4.53553 6.82843L1.70711 4L4.53553 1.17157C4.7308 0.976309 4.7308 0.659727 4.53553 0.464465C4.34027 0.269203 4.02369 0.269203 3.82843 0.464465L0.646446 3.64645ZM17 3.5L1 3.5L1 4.5L17 4.5L17 3.5Z" fill="currentColor"></path>
  </symbol>
  <symbol xmlns="http://www.w3.org/2000/svg" viewBox="0 0 33 33" id="ic_buy">
    <path d="M13.4063 17.0157C13.4063 17.3 13.1749 17.5314 12.8907 17.5314C12.6065 17.5314 12.3751 17.3 12.3751 17.0157C12.3751 16.7315 12.6065 16.5001 12.8907 16.5001C13.1749 16.5001 13.4063 16.7315 13.4063 17.0157ZM20.1094 16.5001C19.8252 16.5001 19.5938 16.7315 19.5938 17.0157C19.5938 17.3 19.8252 17.5314 20.1094 17.5314C20.3937 17.5314 20.6251 17.3 20.6251 17.0157C20.6251 16.7315 20.3937 16.5001 20.1094 16.5001ZM23.9405 28.3595H9.0596C7.81179 28.3595 6.84757 27.2612 7.01257 26.0237L8.76569 12.8907L9.63368 10.8681C8.43228 9.22781 8.53115 7.14798 9.60429 5.74979C11.0364 3.88729 13.665 3.58017 15.4688 5.01638C17.2711 3.58191 19.8987 3.88446 21.333 5.74954C21.591 6.08269 21.7877 6.45381 21.926 6.85214C23.3569 7.33592 24.0908 8.87274 23.536 10.3146C23.4796 10.4665 23.4053 10.6137 23.3206 10.7559L24.2344 12.8907L25.9876 26.0237C26.1526 27.2612 25.1883 28.3595 23.9405 28.3595ZM21.4138 7.77033C21.4136 7.77033 21.4133 7.77033 21.4131 7.77027C20.8814 7.66128 20.3388 7.82493 19.9619 8.20887C19.8652 8.30755 19.733 8.36324 19.5948 8.36343C19.5946 8.36343 19.5941 8.36343 19.5938 8.36343C19.4561 8.36343 19.3239 8.30832 19.2272 8.21036C18.9029 7.88229 18.4527 7.70807 17.9965 7.73953C16.9168 7.80707 16.1705 8.93036 16.643 10.0198C16.8439 10.4975 17.0996 10.6586 18.7939 12.3751H20.3942C22.0901 10.6565 22.3796 10.4696 22.5697 9.95388C22.5708 9.95136 22.5717 9.94885 22.5728 9.94608C22.9616 8.93939 22.3331 7.95925 21.4138 7.77033ZM10.7796 10.6329L12.5027 12.3751H17.3447C16.2044 11.2197 15.9494 11.0324 15.6946 10.4246C14.9366 8.67667 16.1532 6.82146 17.9318 6.71027C18.5267 6.67199 19.1104 6.8397 19.5925 7.17556C19.9381 6.93328 20.3712 6.77634 20.7471 6.72716C19.7418 4.93981 17.2961 4.59531 15.8351 6.07077C15.7384 6.16848 15.6065 6.22359 15.4688 6.22359C15.331 6.22359 15.1991 6.16848 15.1024 6.07077C13.8094 4.76392 11.6196 4.82044 10.4223 6.37795C9.48789 7.59534 9.59772 9.42394 10.7796 10.6329ZM21.6563 17.0157C21.6563 16.1628 20.9624 15.4689 20.1094 15.4689C19.2565 15.4689 18.5626 16.1628 18.5626 17.0157C18.5626 17.6871 18.9949 18.254 19.5938 18.4676V20.6251C19.5938 22.3311 18.2061 23.7189 16.5001 23.7189C14.7941 23.7189 13.4063 22.3311 13.4063 20.6251V18.4676C14.0052 18.2541 14.4376 17.6871 14.4376 17.0157C14.4376 16.1628 13.7437 15.4689 12.8907 15.4689C12.0377 15.4689 11.3438 16.1628 11.3438 17.0157C11.3438 17.6871 11.7762 18.254 12.3751 18.4676V20.6251C12.3751 22.8996 14.2256 24.7501 16.5001 24.7501C18.7746 24.7501 20.6251 22.8996 20.6251 20.6251V18.4676C21.224 18.2541 21.6563 17.6871 21.6563 17.0157Z" fill="currentColor"></path>
  </symbol>
  <symbol xmlns="http://www.w3.org/2000/svg" viewBox="0 0 15 15" id="ic_check">
    <path fill-rule="evenodd" clip-rule="evenodd" d="M12.3169 3.93306C12.561 4.17714 12.561 4.57286 12.3169 4.81694L6.50887 10.625C6.02072 11.1132 5.22927 11.1131 4.74112 10.625L2.05806 7.94194C1.81398 7.69787 1.81398 7.30212 2.05806 7.05806C2.30214 6.814 2.69786 6.814 2.94194 7.05806L5.625 9.74112L11.4331 3.93306C11.6771 3.68898 12.0729 3.68898 12.3169 3.93306Z" fill="currentColor"></path>
  </symbol>
  <symbol xmlns="http://www.w3.org/2000/svg" viewBox="0 0 9 9" id="ic_close">
    <path d="M9 0.409038L8.59096 0L4.5 4.09096L0.409038 0L0 0.409038L4.09096 4.5L0 8.59096L0.409038 9L4.5 4.90904L8.59096 9L9 8.59096L4.90904 4.5L9 0.409038Z" fill="currentColor"></path>
  </symbol>
  <symbol xmlns="http://www.w3.org/2000/svg" viewBox="0 0 16 19" id="ic_cart">
    <path d="M0.491427 16.4239L1.57936 4.17301C1.60267 3.90102 1.83192 3.69509 2.10002 3.69509H4.33805C4.36914 1.65133 6.03989 0 8.09143 0C10.143 0 11.8137 1.65133 11.8448 3.69509H14.0828C14.3548 3.69509 14.5802 3.90102 14.6035 4.17301L15.6914 16.4239C15.6914 16.4395 15.6953 16.455 15.6953 16.4706C15.6953 17.8654 14.417 19 12.8434 19H3.33949C1.76587 19 0.487541 17.8654 0.487541 16.4706C0.487541 16.455 0.487541 16.4395 0.491427 16.4239ZM8.09143 1.04908C6.61883 1.04908 5.41822 2.23027 5.38713 3.69509H10.7957C10.7646 2.23027 9.56402 1.04908 8.09143 1.04908ZM3.33949 17.9509H12.8434C13.8303 17.9509 14.6307 17.2982 14.6462 16.4939L13.6049 4.74806H11.8487V6.3411C11.8487 6.63251 11.6156 6.86564 11.3241 6.86564C11.0327 6.86564 10.7996 6.63251 10.7996 6.3411V4.74806H5.38713V6.3411C5.38713 6.63251 5.154 6.86564 4.86259 6.86564C4.57118 6.86564 4.33805 6.63251 4.33805 6.3411V4.74806H2.58182L1.53662 16.4939C1.55216 17.2982 2.35646 17.9509 3.33949 17.9509Z" fill="currentColor"></path>
  </symbol>
  <symbol xmlns="http://www.w3.org/2000/svg" viewBox="0 0 23 23" id="ic_email">
    <path d="M23.0001 18.6395V4.36328L15.0698 11.5014L23.0001 18.6395Z" fill="currentColor"></path>
    <path d="M11.4996 14.7138L9.23552 12.6758L1.30518 19.8139H21.6941L13.7638 12.6758L11.4996 14.7138Z" fill="currentColor"></path>
    <path d="M21.6941 3.1875H1.30518L11.4996 12.3636L21.6941 3.1875Z" fill="currentColor"></path>
    <path d="M0 4.36328V18.6395L7.93028 11.5014L0 4.36328Z" fill="currentColor"></path>
  </symbol>
  <symbol xmlns="http://www.w3.org/2000/svg" viewBox="0 0 17 18" id="ic_dislike">
    <path d="M4.87325 9.48087L7.04227 15.9879C7.06736 16.0442 7.10338 16.0949 7.14823 16.1371C7.19307 16.1792 7.24586 16.2121 7.30352 16.2337C7.36118 16.2554 7.42256 16.2653 7.4841 16.263C7.54564 16.2607 7.6061 16.2462 7.66199 16.2203L8.43664 15.833C8.76282 15.6633 9.03632 15.4075 9.22749 15.0935C9.41867 14.7794 9.52022 14.419 9.52115 14.0513V11.0302H14.4789C14.713 11.0259 14.943 10.9687 15.1518 10.8627C15.3605 10.7568 15.5425 10.605 15.6842 10.4186C15.8258 10.2322 15.9234 10.0162 15.9696 9.78666C16.0157 9.55717 16.0093 9.32019 15.9507 9.09355L14.4014 2.89635C14.3168 2.56842 14.1271 2.27725 13.8613 2.0674C13.5955 1.85754 13.2682 1.74057 12.9296 1.73438H2.5493C2.1384 1.73438 1.74433 1.8976 1.45378 2.18815C1.16323 2.4787 1 2.87277 1 3.28367V7.93157C1 8.34247 1.16323 8.73654 1.45378 9.02709C1.74433 9.31764 2.1384 9.48087 2.5493 9.48087H4.87325ZM4.87325 9.48087V1.73438" stroke="currentColor" stroke-width="1.5" stroke-linecap="round" stroke-linejoin="round" fill="none"></path>
  </symbol>
  <symbol xmlns="http://www.w3.org/2000/svg" viewBox="0 0 16 15" id="ic_favorite_a">
    <path d="M15.7115 4.54815C15.6657 2.96005 14.9372 1.65474 13.9065 0.856728C12.5808 -0.170827 10.7529 -0.359356 9.23363 0.761744C8.7322 1.13305 8.26292 1.64682 7.85721 2.32179C7.45149 1.64682 6.98293 1.13305 6.48079 0.762463C4.96151 -0.359356 3.13437 -0.170827 1.80795 0.857448C0.77653 1.65546 0.048677 2.96077 0.00296295 4.54887C-0.0220369 5.39222 0.106534 6.33342 0.565817 7.28542C1.28724 8.77998 4.67651 12.103 7.83078 14.9727L7.85578 15L7.85721 14.9986L7.85864 15L7.88435 14.9727C11.0379 12.1037 14.4265 8.7807 15.1486 7.28542C15.6086 6.33342 15.7357 5.3915 15.7115 4.54815Z" fill="currentColor"></path>
  </symbol>
  <symbol xmlns="http://www.w3.org/2000/svg" viewBox="0 0 20 17" id="ic_favorite">
    <path d="M10.0918 16.9039C9.82129 16.9039 9.56051 16.8059 9.35728 16.6279C8.58972 15.9567 7.84971 15.326 7.19682 14.7697L7.19348 14.7668C5.27931 13.1356 3.62635 11.7269 2.47625 10.3392C1.19062 8.78782 0.591797 7.31693 0.591797 5.71006C0.591797 4.14886 1.12713 2.70855 2.09907 1.65427C3.08261 0.587517 4.43217 0 5.89959 0C6.99634 0 8.00076 0.346741 8.88486 1.03051C9.33104 1.37566 9.73547 1.79807 10.0918 2.29078C10.4482 1.79807 10.8525 1.37566 11.2988 1.03051C12.1829 0.346741 13.1874 0 14.2841 0C15.7514 0 17.1011 0.587517 18.0846 1.65427C19.0566 2.70855 19.5918 4.14886 19.5918 5.71006C19.5918 7.31693 18.9931 8.78782 17.7074 10.339C16.5574 11.7269 14.9045 13.1354 12.9907 14.7665C12.3366 15.3237 11.5954 15.9554 10.8261 16.6282C10.6231 16.8059 10.3621 16.9039 10.0918 16.9039ZM5.89959 1.11299C4.74673 1.11299 3.68767 1.57309 2.91722 2.40863C2.13531 3.25678 1.70464 4.42921 1.70464 5.71006C1.70464 7.06151 2.20692 8.27017 3.3331 9.62901C4.42159 10.9425 6.04063 12.3222 7.91523 13.9198L7.91871 13.9227C8.57407 14.4812 9.31698 15.1144 10.0902 15.7905C10.868 15.1131 11.6121 14.4789 12.2688 13.9195C14.1432 12.3219 15.7621 10.9425 16.8506 9.62901C17.9766 8.27017 18.4789 7.06151 18.4789 5.71006C18.4789 4.42921 18.0482 3.25678 17.2663 2.40863C16.496 1.57309 15.4368 1.11299 14.2841 1.11299C13.4396 1.11299 12.6642 1.38145 11.9796 1.91084C11.3694 2.38283 10.9444 2.97948 10.6952 3.39696C10.5671 3.61164 10.3415 3.73978 10.0918 3.73978C9.84202 3.73978 9.61646 3.61164 9.48832 3.39696C9.23928 2.97948 8.81426 2.38283 8.20399 1.91084C7.51935 1.38145 6.74397 1.11299 5.89959 1.11299Z" fill="currentColor"></path>
  </symbol>
  <symbol xmlns="http://www.w3.org/2000/svg" viewBox="0 0 16 16" id="ic_fb">
    <path d="M11.6521 0.00323276L9.63731 0C7.37376 0 5.91095 1.50081 5.91095 3.8237V5.58669H3.88517C3.71011 5.58669 3.56836 5.7286 3.56836 5.90366V8.45802C3.56836 8.63307 3.71028 8.77483 3.88517 8.77483H5.91095V15.2203C5.91095 15.3954 6.05271 15.5371 6.22776 15.5371H8.87083C9.04588 15.5371 9.18764 15.3952 9.18764 15.2203V8.77483H11.5563C11.7313 8.77483 11.8731 8.63307 11.8731 8.45802L11.874 5.90366C11.874 5.81961 11.8406 5.73911 11.7813 5.67963C11.7219 5.62015 11.6411 5.58669 11.5571 5.58669H9.18764V4.09218C9.18764 3.37387 9.35881 3.00921 10.2945 3.00921L11.6518 3.00873C11.8267 3.00873 11.9684 2.86681 11.9684 2.69192V0.320043C11.9684 0.145312 11.8268 0.00355603 11.6521 0.00323276Z" fill="currentColor"></path>
  </symbol>
  <symbol xmlns="http://www.w3.org/2000/svg" viewBox="0 0 19 19" id="ic_filter">
    <path fill-rule="evenodd" clip-rule="evenodd" d="M2.375 5.54167C2.375 5.10445 2.72945 4.75 3.16667 4.75H15.8333C16.2706 4.75 16.625 5.10445 16.625 5.54167C16.625 5.97889 16.2706 6.33333 15.8333 6.33333H3.16667C2.72945 6.33333 2.375 5.97889 2.375 5.54167ZM4.75 9.5C4.75 9.06276 5.10444 8.70833 5.54167 8.70833H13.4583C13.8956 8.70833 14.25 9.06276 14.25 9.5C14.25 9.93724 13.8956 10.2917 13.4583 10.2917H5.54167C5.10444 10.2917 4.75 9.93724 4.75 9.5ZM7.125 13.4583C7.125 13.0211 7.47944 12.6667 7.91667 12.6667H11.0833C11.5206 12.6667 11.875 13.0211 11.875 13.4583C11.875 13.8956 11.5206 14.25 11.0833 14.25H7.91667C7.47944 14.25 7.125 13.8956 7.125 13.4583Z" fill="currentColor"></path>
  </symbol>
  <symbol xmlns="http://www.w3.org/2000/svg" viewBox="0 0 26 26" id="ic_image">
    <path d="M23.5625 23.5625H2.4375C1.09362 23.5625 0 22.4689 0 21.125V8.125C0 6.78113 1.09362 5.6875 2.4375 5.6875H5.99706L7.39538 2.88763C7.53188 2.61138 7.81381 2.4375 8.12175 2.4375H17.8799C18.1878 2.4375 18.4689 2.61138 18.6071 2.88763L20.0029 5.6875H23.5625C24.9064 5.6875 26 6.78113 26 8.125V21.125C26 22.4689 24.9064 23.5625 23.5625 23.5625ZM24.375 8.125C24.375 7.67731 24.0102 7.3125 23.5625 7.3125H19.5C19.4594 7.3125 19.4244 7.29544 19.3854 7.28975C19.3277 7.28081 19.2701 7.27594 19.2148 7.25481C19.1653 7.23612 19.1238 7.20606 19.0791 7.17763C19.0352 7.15081 18.9906 7.12806 18.9524 7.09231C18.9093 7.0525 18.8784 7.00375 18.8451 6.955C18.8224 6.9225 18.7907 6.89894 18.7728 6.86238L17.3769 4.0625H8.62469L7.22719 6.86238C7.189 6.93956 7.13781 7.00619 7.08094 7.06469C7.06956 7.07688 7.05575 7.08419 7.04356 7.09556C6.98506 7.14838 6.92088 7.19144 6.851 7.22475C6.82744 7.23694 6.80469 7.24669 6.7795 7.25644C6.69012 7.28894 6.5975 7.31169 6.50163 7.3125H6.5H2.4375C1.98981 7.3125 1.625 7.67731 1.625 8.125V21.125C1.625 21.5727 1.98981 21.9375 2.4375 21.9375H23.5625C24.0102 21.9375 24.375 21.5727 24.375 21.125V8.125ZM13 19.5C9.86375 19.5 7.3125 16.9487 7.3125 13.8125C7.3125 10.6763 9.86375 8.125 13 8.125C16.1362 8.125 18.6875 10.6763 18.6875 13.8125C18.6875 16.9487 16.1362 19.5 13 19.5ZM13 9.75C10.7599 9.75 8.9375 11.5724 8.9375 13.8125C8.9375 16.0526 10.7599 17.875 13 17.875C15.2401 17.875 17.0625 16.0526 17.0625 13.8125C17.0625 11.5724 15.2401 9.75 13 9.75Z" fill="currentColor"></path>
  </symbol>
  <symbol xmlns="http://www.w3.org/2000/svg" viewBox="0 0 17 18" id="ic_like">
    <path d="M4.87325 8.51913L7.04227 2.01207C7.06736 1.95584 7.10338 1.90515 7.14823 1.86295C7.19307 1.82075 7.24586 1.78789 7.30352 1.76627C7.36118 1.74464 7.42256 1.73469 7.4841 1.737C7.54564 1.7393 7.6061 1.75381 7.66199 1.77968L8.43664 2.167C8.76282 2.3367 9.03632 2.59245 9.22749 2.90653C9.41867 3.2206 9.52022 3.58102 9.52115 3.9487V6.96983H14.4789C14.713 6.97409 14.943 7.03134 15.1518 7.13726C15.3605 7.24319 15.5425 7.39504 15.6842 7.58142C15.8258 7.76779 15.9234 7.98384 15.9696 8.21334C16.0157 8.44283 16.0093 8.67981 15.9507 8.90645L14.4014 15.1037C14.3168 15.4316 14.1271 15.7227 13.8613 15.9326C13.5955 16.1425 13.2682 16.2594 12.9296 16.2656H2.5493C2.1384 16.2656 1.74433 16.1024 1.45378 15.8118C1.16323 15.5213 1 15.1272 1 14.7163V10.0684C1 9.65753 1.16323 9.26346 1.45378 8.97291C1.74433 8.68236 2.1384 8.51913 2.5493 8.51913H4.87325ZM4.87325 8.51913V16.2656" stroke="currentColor" stroke-width="1.5" stroke-linecap="round" stroke-linejoin="round" fill="none"></path>
  </symbol>
  <symbol xmlns="http://www.w3.org/2000/svg" viewBox="0 0 22 16" id="ic_link">
    <path id="Vector" d="M8.27537 13.1875C8.04494 13.393 7.8666 13.5305 7.68435 13.631C6.79222 14.123 5.69308 14.123 4.80095 13.631C4.4722 13.4497 4.15618 13.1478 3.52415 12.5442C2.89212 11.9405 2.5761 11.6386 2.3863 11.3246C1.87123 10.4724 1.87123 9.42253 2.3863 8.57039C2.5761 8.25641 2.89212 7.95456 3.52415 7.35084L6.24265 4.75418C6.87468 4.15048 7.19069 3.84862 7.51944 3.66733C8.41157 3.17534 9.51074 3.17534 10.4029 3.66732C10.7316 3.84862 11.0476 4.15048 11.6796 4.75418C12.3117 5.35789 12.6277 5.65974 12.8175 5.97375C13.3326 6.82589 13.3326 7.87579 12.8175 8.72793C12.7123 8.90199 12.5683 9.07238 12.3531 9.29244M9.64693 6.70756C9.43173 6.92762 9.28775 7.09801 9.18251 7.27207C8.66748 8.12421 8.66748 9.17411 9.18251 10.0262C9.37233 10.3403 9.68835 10.6422 10.3204 11.2458C10.9524 11.8495 11.2685 12.1514 11.5972 12.3327C12.4893 12.8247 13.5884 12.8247 14.4806 12.3327C14.8094 12.1514 15.1254 11.8495 15.7574 11.2458L18.4759 8.64916C19.1079 8.04544 19.424 7.74359 19.6137 7.42961C20.1288 6.57747 20.1288 5.52757 19.6137 4.67542C19.424 4.36141 19.1079 4.05955 18.4759 3.45584C17.8439 2.85214 17.5278 2.55029 17.1991 2.36899C16.3069 1.877 15.2079 1.877 14.3157 2.36899C14.1334 2.4695 13.9551 2.60705 13.7246 2.81255" stroke="currentColor" stroke-width="2.1" stroke-linecap="round" fill="none"></path>
  </symbol>
  <symbol xmlns="http://www.w3.org/2000/svg" viewBox="0 0 17 17" id="ic_location">
    <path d="M8.49953 0C5.10468 0 2.34277 2.7619 2.34277 6.15672C2.34277 10.3698 7.85247 16.5548 8.08705 16.8161C8.30738 17.0615 8.69207 17.0611 8.91201 16.8161C9.14659 16.5548 14.6563 10.3698 14.6563 6.15672C14.6562 2.7619 11.8943 0 8.49953 0ZM8.49953 9.25434C6.79149 9.25434 5.40194 7.86476 5.40194 6.15672C5.40194 4.44869 6.79153 3.05914 8.49953 3.05914C10.2075 3.05914 11.5971 4.44872 11.5971 6.15676C11.5971 7.86479 10.2075 9.25434 8.49953 9.25434Z" fill="currentColor"></path>
  </symbol>
  <symbol xmlns="http://www.w3.org/2000/svg" viewBox="0 0 23 16" id="ic_menu">
    <path d="M1 1H22" stroke="currentColor" stroke-linecap="round" fill="none"></path>
    <path d="M1 8H15" stroke="currentColor" stroke-linecap="round" fill="none"></path>
    <path d="M1 15H22" stroke="currentColor" stroke-linecap="round" fill="none"></path>
  </symbol>
  <symbol xmlns="http://www.w3.org/2000/svg" viewBox="0 0 18 18" id="ic_odnokl">
    <path d="M7.70409 12.0389C6.37915 11.9007 5.18453 11.5744 4.16174 10.7745C4.03483 10.6749 3.9038 10.579 3.78799 10.4678C3.34032 10.0379 3.29521 9.54547 3.64945 9.03801C3.95249 8.60377 4.4612 8.4876 4.98996 8.73694C5.09234 8.78527 5.1899 8.84559 5.28333 8.91039C7.18947 10.2201 9.80802 10.2563 11.7213 8.96928C11.9109 8.82393 12.1135 8.70544 12.3483 8.64494C12.805 8.52769 13.2308 8.69541 13.4759 9.09494C13.7558 9.5512 13.7522 9.99654 13.4073 10.3508C12.8782 10.8939 12.2418 11.2868 11.5348 11.561C10.8663 11.8202 10.134 11.9507 9.40922 12.0373C9.51859 12.1563 9.57014 12.2149 9.63851 12.2836C10.6226 13.2724 11.6111 14.257 12.592 15.2489C12.9262 15.5868 12.996 16.0058 12.812 16.3989C12.6108 16.8285 12.1604 17.1111 11.7188 17.0809C11.439 17.0616 11.2208 16.9223 11.027 16.727C10.2843 15.9797 9.52771 15.2462 8.80009 14.4847C8.58834 14.2633 8.48649 14.3052 8.29961 14.4974C7.55248 15.2666 6.79318 16.0239 6.02939 16.777C5.68644 17.1151 5.27832 17.1759 4.88059 16.9828C4.4578 16.7779 4.18877 16.3463 4.20953 15.9126C4.22385 15.6192 4.36812 15.3951 4.56949 15.1941C5.54342 14.2216 6.51466 13.2466 7.48625 12.2725C7.55051 12.2077 7.61048 12.139 7.70409 12.0389Z" fill="currentColor"></path>
    <path d="M8.51078 8.65077C6.14713 8.64271 4.20895 6.68323 4.22273 4.31581C4.23633 1.92227 6.17577 -0.00660589 8.56269 1.70041e-05C10.9545 0.0064609 12.8742 1.96308 12.8622 4.38151C12.85 6.74409 10.8984 8.659 8.51078 8.65077ZM10.6589 4.32154C10.6548 3.14607 9.71866 2.21027 8.54551 2.2092C7.36252 2.20795 6.41795 3.16075 6.42708 4.34696C6.43585 5.51796 7.38006 6.44713 8.55643 6.44284C9.72922 6.43872 10.6629 5.49684 10.6589 4.32154Z" fill="currentColor"></path>
  </symbol>
  <symbol xmlns="http://www.w3.org/2000/svg" viewBox="0 0 31 31" id="ic_phone">
    <path d="M21.3852 16.6712L20.7968 17.256C20.7968 17.256 19.3985 18.6465 15.5816 14.8512C11.7647 11.056 13.1631 9.66563 13.1631 9.66563L13.5335 9.29726C14.4462 8.38981 14.5322 6.9329 13.7359 5.86931L12.1072 3.69362C11.1217 2.37721 9.21736 2.20331 8.08778 3.32647L6.06039 5.34236C5.50029 5.89927 5.12496 6.6212 5.17048 7.42206C5.28692 9.47091 6.21391 13.8792 11.3866 19.0225C16.872 24.4767 22.0189 24.6934 24.1236 24.4972C24.7894 24.4352 25.3683 24.0962 25.8348 23.6322L27.6698 21.8079C28.9083 20.5762 28.5591 18.4649 26.9743 17.6035L24.5066 16.262C23.466 15.6963 22.1984 15.8624 21.3852 16.6712Z" fill="currentColor"></path>
  </symbol>
  <symbol xmlns="http://www.w3.org/2000/svg" viewBox="0 0 19 19" id="ic_search">
    <path d="M18.8357 18.031L14.2173 13.4137C15.4562 11.9898 16.2063 10.1319 16.2063 8.10133C16.2063 3.63149 12.5697 0 8.10313 0C3.63229 0 0 3.6357 0 8.10133C0 12.567 3.6365 16.2027 8.10313 16.2027C10.1342 16.2027 11.9925 15.4528 13.4167 14.2142L18.035 18.8315C18.1446 18.941 18.2921 19 18.4354 19C18.5786 19 18.7261 18.9452 18.8357 18.8315C19.0548 18.6124 19.0548 18.2501 18.8357 18.031ZM1.13351 8.10133C1.13351 4.2592 4.26015 1.13747 8.09891 1.13747C11.9419 1.13747 15.0643 4.26341 15.0643 8.10133C15.0643 11.9392 11.9419 15.0694 8.09891 15.0694C4.26015 15.0694 1.13351 11.9435 1.13351 8.10133Z" fill="currentColor"></path>
  </symbol>
  <symbol xmlns="http://www.w3.org/2000/svg" viewBox="0 0 23 23" id="ic_send">
    <path d="M21.5149 11.1173L3.30658 2.49232L2.87533 2.39648C2.62116 2.39648 2.3774 2.49745 2.19768 2.67717C2.01796 2.8569 1.91699 3.10065 1.91699 3.35482L4.45658 11.0215H11.5003C11.7507 11.0331 11.9878 11.1379 12.165 11.3151C12.3423 11.4924 12.447 11.7294 12.4587 11.9798C12.4587 12.234 12.3577 12.4777 12.178 12.6575C11.9982 12.8372 11.7545 12.9382 11.5003 12.9382H4.45658L1.91699 20.6048C1.91699 20.859 2.01796 21.1027 2.19768 21.2825C2.3774 21.4622 2.62116 21.5632 2.87533 21.5632L3.30658 21.4673L21.5149 12.8423C21.6769 12.7638 21.8136 12.6413 21.9092 12.4888C22.0048 12.3362 22.0555 12.1598 22.0555 11.9798C22.0555 11.7998 22.0048 11.6234 21.9092 11.4709C21.8136 11.3183 21.6769 11.1958 21.5149 11.1173Z" fill="currentColor"></path>
  </symbol>
  <symbol xmlns="http://www.w3.org/2000/svg" viewBox="0 0 17 16" id="ic_star">
    <path d="M8.5 0L10.4084 5.87336L16.584 5.87336L11.5878 9.50329L13.4962 15.3766L8.5 11.7467L3.50383 15.3766L5.41219 9.50329L0.416019 5.87336L6.59163 5.87336L8.5 0Z" fill="currentColor"></path>
  </symbol>
  <symbol xmlns="http://www.w3.org/2000/svg" viewBox="0 0 24 24" id="ic_time">
    <path fill-rule="evenodd" clip-rule="evenodd" d="M0 11.9997C0 5.37268 5.37257 0 11.9999 0C18.6271 0 24 5.37244 24 11.9997C24 18.6269 18.627 24 11.9998 24C5.37257 24 0 18.6267 0 11.9997ZM12.8186 13.5547C12.8227 13.5255 12.8268 13.4963 12.8274 13.4672C12.8274 13.4646 12.8278 13.4621 12.8281 13.4596C12.8285 13.4572 12.8288 13.4547 12.8288 13.4522H12.8287V4.98008C12.8287 4.52175 12.4571 4.15015 11.9987 4.15015C11.5404 4.15015 11.1688 4.52175 11.1688 4.98008V12.1429L7.75147 10.5314C7.3369 10.336 6.84225 10.5138 6.64681 10.9281C6.45137 11.3427 6.62897 11.8373 7.04354 12.0328L11.6448 14.2031C11.6494 14.2052 11.6542 14.2056 11.6587 14.2079C11.6986 14.2257 11.7403 14.2386 11.7831 14.2502C11.7892 14.2519 11.7953 14.254 11.8014 14.2561C11.8095 14.2589 11.8176 14.2617 11.8258 14.2635C11.8716 14.2733 11.9193 14.277 11.9675 14.2789C11.9722 14.279 11.977 14.2798 11.9817 14.2806C11.9872 14.2815 11.9927 14.2824 11.9982 14.2824C12.0484 14.2824 12.098 14.2762 12.147 14.2673C12.1609 14.2648 12.1744 14.2618 12.1881 14.2585C12.2263 14.2497 12.2632 14.238 12.2997 14.2239C12.3038 14.2223 12.3079 14.2209 12.312 14.2195C12.3175 14.2177 12.323 14.2159 12.3283 14.2135C12.3715 14.1948 12.4131 14.172 12.4527 14.1461C12.4593 14.1417 12.4655 14.137 12.4718 14.1324C12.4749 14.13 12.4781 14.1277 12.4813 14.1253C12.5122 14.1033 12.5412 14.0793 12.5688 14.0529L12.5714 14.0506C12.5797 14.0429 12.5877 14.0355 12.5956 14.0274C12.627 13.9947 12.6568 13.9598 12.683 13.9214C12.6844 13.9193 12.6864 13.9173 12.6878 13.9152C12.7108 13.8809 12.7317 13.8448 12.7498 13.8062C12.7507 13.804 12.7514 13.8017 12.7521 13.7995C12.7529 13.7968 12.7537 13.7941 12.755 13.7915C12.7656 13.7675 12.7736 13.7424 12.7816 13.717C12.7828 13.7132 12.7841 13.7093 12.7853 13.7054C12.7874 13.6988 12.7897 13.6923 12.7919 13.6858C12.7979 13.6682 12.8038 13.6507 12.8077 13.633C12.8115 13.6168 12.8133 13.6 12.8151 13.5834C12.8159 13.5762 12.8167 13.569 12.8176 13.5618L12.8186 13.5547Z" fill="currentColor"></path>
  </symbol>
  <symbol xmlns="http://www.w3.org/2000/svg" viewBox="0 0 22 22" id="ic_tooltip">
    <path fill-rule="evenodd" clip-rule="evenodd" d="M20.1668 11.0007C20.1668 16.0632 16.0627 20.1673 11.0002 20.1673C5.93755 20.1673 1.8335 16.0632 1.8335 11.0007C1.8335 5.93804 5.93755 1.83398 11.0002 1.83398C16.0627 1.83398 20.1668 5.93804 20.1668 11.0007ZM11.0002 7.10482C10.4306 7.10482 9.96891 7.56652 9.96891 8.13607C9.96891 8.51576 9.6611 8.82357 9.28141 8.82357C8.90172 8.82357 8.59391 8.51576 8.59391 8.13607C8.59391 6.80713 9.67127 5.72982 11.0002 5.72982C12.3291 5.72982 13.4064 6.80713 13.4064 8.13607C13.4064 8.78767 13.1465 9.37998 12.7262 9.81265C12.6416 9.89964 12.561 9.98031 12.484 10.0572C12.2862 10.2549 12.1128 10.428 11.9607 10.6234C11.76 10.8814 11.6877 11.0711 11.6877 11.2298V11.9173C11.6877 12.297 11.3798 12.6048 11.0002 12.6048C10.6205 12.6048 10.3127 12.297 10.3127 11.9173V11.2298C10.3127 10.6292 10.5922 10.143 10.8757 9.77892C11.0853 9.50951 11.3489 9.24643 11.5628 9.03299C11.6273 8.96859 11.6873 8.90872 11.7399 8.85452C11.921 8.66813 12.0314 8.41569 12.0314 8.13607C12.0314 7.56652 11.5697 7.10482 11.0002 7.10482ZM11.0002 15.584C11.5064 15.584 11.9168 15.1736 11.9168 14.6673C11.9168 14.161 11.5064 13.7507 11.0002 13.7507C10.4939 13.7507 10.0835 14.161 10.0835 14.6673C10.0835 15.1736 10.4939 15.584 11.0002 15.584Z" fill="currentColor"></path>
  </symbol>
  <symbol xmlns="http://www.w3.org/2000/svg" viewBox="0 0 29 35" id="ic_video_play">
    <path d="M28.3541 17.4989L0.561571 34.712L0.561573 0.28591L28.3541 17.4989Z" fill="currentColor"></path>
  </symbol>
  <symbol xmlns="http://www.w3.org/2000/svg" viewBox="0 0 73 73" id="ic_video_play2">
    <path fill-rule="evenodd" clip-rule="evenodd" d="M36.5 73C56.6584 73 73 56.6584 73 36.5C73 16.3416 56.6584 0 36.5 0C16.3416 0 0 16.3416 0 36.5C0 56.6584 16.3416 73 36.5 73ZM30 46.3923L48 36L30 25.6077L30 46.3923Z" fill="currentColor"></path>
  </symbol>
  <symbol xmlns="http://www.w3.org/2000/svg" viewBox="0 0 16 16" id="ic_vk">
    <path fill-rule="evenodd" clip-rule="evenodd" d="M13.7703 9.22995C14.301 9.74812 14.8612 10.2356 15.3372 10.8061C15.5475 11.0596 15.7466 11.3212 15.8989 11.6153C16.1147 12.0335 15.9192 12.4937 15.5442 12.5187L13.2133 12.5176C12.6121 12.5675 12.1325 12.3255 11.7293 11.9145C11.4066 11.5857 11.1077 11.2359 10.7974 10.8961C10.6702 10.7572 10.537 10.6265 10.3779 10.5232C10.0597 10.3167 9.78353 10.3799 9.60169 10.7118C9.41649 11.0493 9.37448 11.4231 9.35629 11.7993C9.33132 12.3481 9.16542 12.4925 8.61407 12.5176C7.43578 12.5731 6.31753 12.3949 5.2787 11.8005C4.36284 11.2765 3.65263 10.5367 3.03447 9.69923C1.83089 8.06848 0.909193 6.27655 0.0808054 4.43441C-0.105658 4.01938 0.0307068 3.79659 0.488638 3.7887C1.24905 3.77393 2.00936 3.77498 2.77067 3.78765C3.07973 3.79217 3.28433 3.96944 3.40366 4.26141C3.81507 5.273 4.31847 6.23544 4.95035 7.12754C5.11863 7.36505 5.29022 7.60256 5.53456 7.76973C5.80487 7.95482 6.01068 7.89348 6.13784 7.59236C6.21854 7.40143 6.25386 7.19577 6.27205 6.99128C6.3323 6.28774 6.34024 5.58542 6.23457 4.88435C6.1697 4.44682 5.92326 4.16358 5.48667 4.08078C5.26388 4.03857 5.29705 3.95566 5.40492 3.8285C5.59228 3.60918 5.76849 3.47266 6.11976 3.47266H8.75406C9.16878 3.55451 9.26088 3.74081 9.31766 4.15811L9.31992 7.08427C9.3154 7.24582 9.40061 7.7252 9.69158 7.83213C9.92446 7.90825 10.078 7.72194 10.2177 7.57427C10.8484 6.90486 11.2986 6.11374 11.7007 5.29455C11.8792 4.93435 12.0327 4.56026 12.1814 4.1865C12.2916 3.90914 12.4645 3.77267 12.7769 3.77871L15.3122 3.78098C15.3874 3.78098 15.4635 3.78208 15.5363 3.79454C15.9635 3.86735 16.0806 4.05113 15.9486 4.46832C15.7407 5.12286 15.3362 5.66832 14.9407 6.2163C14.5179 6.80135 14.0657 7.36636 13.6464 7.95488C13.2611 8.49229 13.2917 8.76318 13.7703 9.22995Z" fill="currentColor"></path>
  </symbol>
</svg>